<?xml version="1.0" encoding="utf-8" standalone="no"?>
<!DOCTYPE svg PUBLIC "-//W3C//DTD SVG 1.1//EN"
  "http://www.w3.org/Graphics/SVG/1.1/DTD/svg11.dtd">
<svg height="288pt" version="1.1" viewBox="0 0 432 288" width="432pt" xmlns="http://www.w3.org/2000/svg" xmlns:xlink="http://www.w3.org/1999/xlink">
 <metadata>
  <rdf:RDF xmlns:cc="http://creativecommons.org/ns#" xmlns:dc="http://purl.org/dc/elements/1.1/" xmlns:rdf="http://www.w3.org/1999/02/22-rdf-syntax-ns#">
   <cc:Work>
    <dc:type rdf:resource="http://purl.org/dc/dcmitype/StillImage"/>
    <dc:date>2021-09-09T11:45:53.352374</dc:date>
    <dc:format>image/svg+xml</dc:format>
    <dc:creator>
     <cc:Agent>
      <dc:title>Matplotlib v3.4.3, https://matplotlib.org/</dc:title>
     </cc:Agent>
    </dc:creator>
   </cc:Work>
  </rdf:RDF>
 </metadata>
 <defs>
  <style type="text/css">*{stroke-linecap:butt;stroke-linejoin:round;}</style>
 </defs>
 <g id="figure_1">
  <g id="patch_1">
   <path d="M 0 288 
L 432 288 
L 432 0 
L 0 0 
z
" style="fill:#ffffff;"/>
  </g>
  <g id="axes_1">
   <g id="patch_2">
    <path d="M 54 252 
L 388.8 252 
L 388.8 34.56 
L 54 34.56 
z
" style="fill:#ffffff;"/>
   </g>
   <g id="matplotlib.axis_1">
    <g id="xtick_1">
     <g id="line2d_1">
      <path clip-path="url(#pc66caa315d)" d="M 69.218182 252 
L 69.218182 34.56 
" style="fill:none;stroke:#cccccc;stroke-linecap:round;"/>
     </g>
     <g id="line2d_2">
      <defs>
       <path d="M 0 0 
L 0 6 
" id="m557b7507f0" style="stroke:#262626;stroke-width:1.25;"/>
      </defs>
      <g>
       <use style="fill:#262626;stroke:#262626;stroke-width:1.25;" x="69.218182" xlink:href="#m557b7507f0" y="252"/>
      </g>
     </g>
     <g id="text_1">
      <!-- $\mathdefault{10^{1}}$ -->
      <g style="fill:#262626;" transform="translate(61.554545 269.110347)scale(0.11 -0.11)">
       <defs>
        <path d="M 1702 4058 
C 1702 4192 1696 4192 1606 4192 
C 1357 3916 979 3827 621 3827 
C 602 3827 570 3827 563 3808 
C 557 3795 557 3782 557 3648 
C 755 3648 1088 3686 1344 3839 
L 1344 461 
C 1344 236 1331 160 781 160 
L 589 160 
L 589 0 
C 896 0 1216 0 1523 0 
C 1830 0 2150 0 2458 0 
L 2458 160 
L 2266 160 
C 1715 160 1702 230 1702 458 
L 1702 4058 
z
" id="CMR17-31" transform="scale(0.015625)"/>
        <path d="M 2688 2025 
C 2688 2416 2682 3080 2413 3591 
C 2176 4039 1798 4198 1466 4198 
C 1158 4198 768 4058 525 3597 
C 269 3118 243 2524 243 2025 
C 243 1661 250 1106 448 619 
C 723 -39 1216 -128 1466 -128 
C 1760 -128 2208 -7 2470 600 
C 2662 1042 2688 1559 2688 2025 
z
M 1466 -26 
C 1056 -26 813 325 723 812 
C 653 1188 653 1738 653 2096 
C 653 2588 653 2997 736 3387 
C 858 3929 1216 4096 1466 4096 
C 1728 4096 2067 3923 2189 3400 
C 2272 3036 2278 2607 2278 2096 
C 2278 1680 2278 1169 2202 792 
C 2067 95 1690 -26 1466 -26 
z
" id="CMR17-30" transform="scale(0.015625)"/>
       </defs>
       <use transform="scale(0.996264)" xlink:href="#CMR17-31"/>
       <use transform="translate(45.690477 0)scale(0.996264)" xlink:href="#CMR17-30"/>
       <use transform="translate(91.380954 36.153639)scale(0.697382)" xlink:href="#CMR17-31"/>
      </g>
     </g>
    </g>
    <g id="xtick_2">
     <g id="line2d_3">
      <path clip-path="url(#pc66caa315d)" d="M 373.581818 252 
L 373.581818 34.56 
" style="fill:none;stroke:#cccccc;stroke-linecap:round;"/>
     </g>
     <g id="line2d_4">
      <g>
       <use style="fill:#262626;stroke:#262626;stroke-width:1.25;" x="373.581818" xlink:href="#m557b7507f0" y="252"/>
      </g>
     </g>
     <g id="text_2">
      <!-- $\mathdefault{10^{2}}$ -->
      <g style="fill:#262626;" transform="translate(365.918182 269.110347)scale(0.11 -0.11)">
       <defs>
        <path d="M 2669 989 
L 2554 989 
C 2490 536 2438 459 2413 420 
C 2381 369 1920 369 1830 369 
L 602 369 
C 832 619 1280 1072 1824 1597 
C 2214 1967 2669 2402 2669 3035 
C 2669 3790 2067 4224 1395 4224 
C 691 4224 262 3604 262 3030 
C 262 2780 448 2748 525 2748 
C 589 2748 781 2787 781 3010 
C 781 3207 614 3264 525 3264 
C 486 3264 448 3258 422 3245 
C 544 3790 915 4058 1306 4058 
C 1862 4058 2227 3617 2227 3035 
C 2227 2479 1901 2000 1536 1584 
L 262 146 
L 262 0 
L 2515 0 
L 2669 989 
z
" id="CMR17-32" transform="scale(0.015625)"/>
       </defs>
       <use transform="scale(0.996264)" xlink:href="#CMR17-31"/>
       <use transform="translate(45.690477 0)scale(0.996264)" xlink:href="#CMR17-30"/>
       <use transform="translate(91.380954 36.153639)scale(0.697382)" xlink:href="#CMR17-32"/>
      </g>
     </g>
    </g>
    <g id="xtick_3">
     <g id="line2d_5">
      <defs>
       <path d="M 0 0 
L 0 4 
" id="m3911add711" style="stroke:#262626;"/>
      </defs>
      <g>
       <use style="fill:#262626;stroke:#262626;" x="55.291266" xlink:href="#m3911add711" y="252"/>
      </g>
     </g>
    </g>
    <g id="xtick_4">
     <g id="line2d_6">
      <g>
       <use style="fill:#262626;stroke:#262626;" x="160.840766" xlink:href="#m3911add711" y="252"/>
      </g>
     </g>
    </g>
    <g id="xtick_5">
     <g id="line2d_7">
      <g>
       <use style="fill:#262626;stroke:#262626;" x="214.436542" xlink:href="#m3911add711" y="252"/>
      </g>
     </g>
    </g>
    <g id="xtick_6">
     <g id="line2d_8">
      <g>
       <use style="fill:#262626;stroke:#262626;" x="252.46335" xlink:href="#m3911add711" y="252"/>
      </g>
     </g>
    </g>
    <g id="xtick_7">
     <g id="line2d_9">
      <g>
       <use style="fill:#262626;stroke:#262626;" x="281.959234" xlink:href="#m3911add711" y="252"/>
      </g>
     </g>
    </g>
    <g id="xtick_8">
     <g id="line2d_10">
      <g>
       <use style="fill:#262626;stroke:#262626;" x="306.059126" xlink:href="#m3911add711" y="252"/>
      </g>
     </g>
    </g>
    <g id="xtick_9">
     <g id="line2d_11">
      <g>
       <use style="fill:#262626;stroke:#262626;" x="326.435294" xlink:href="#m3911add711" y="252"/>
      </g>
     </g>
    </g>
    <g id="xtick_10">
     <g id="line2d_12">
      <g>
       <use style="fill:#262626;stroke:#262626;" x="344.085934" xlink:href="#m3911add711" y="252"/>
      </g>
     </g>
    </g>
    <g id="xtick_11">
     <g id="line2d_13">
      <g>
       <use style="fill:#262626;stroke:#262626;" x="359.654902" xlink:href="#m3911add711" y="252"/>
      </g>
     </g>
    </g>
    <g id="text_3">
     <!-- Länge der Werteliste -->
     <g style="fill:#262626;" transform="translate(171.062969 283.543421)scale(0.12 -0.12)">
      <defs>
       <path d="M 1670 414 
C 1594 414 1517 414 1440 414 
L 1101 414 
L 1101 4416 
L 563 4416 
L 563 0 
L 3002 0 
L 3002 414 
L 1670 414 
z
" id="CMSS17-4c" transform="scale(0.015625)"/>
       <path d="M 1178 4164 
L 659 4164 
L 659 3648 
L 1178 3648 
L 1178 4164 
z
M 2342 4164 
L 1824 4164 
L 1824 3648 
L 2342 3648 
L 2342 4164 
z
" id="CMSS17-7f" transform="scale(0.015625)"/>
       <path d="M 2406 1791 
C 2406 2392 1978 2808 1402 2808 
C 1120 2808 813 2757 461 2553 
L 499 2135 
C 659 2248 934 2432 1395 2432 
C 1722 2432 1920 2180 1920 1782 
L 1920 1536 
C 896 1536 256 1238 256 726 
C 256 461 416 -64 947 -64 
C 1043 -64 1562 -64 1933 217 
L 1933 -19 
L 2406 -19 
L 2406 1791 
z
M 1920 816 
C 1920 701 1920 548 1728 434 
C 1562 325 1350 325 1261 325 
C 941 325 723 511 723 744 
C 723 1211 1722 1211 1920 1211 
L 1920 816 
z
" id="CMSS17-61" transform="scale(0.015625)"/>
       <path d="M 2618 1877 
C 2618 2283 2522 2816 1798 2816 
C 1389 2816 1120 2606 941 2389 
L 941 2758 
L 474 2758 
L 474 0 
L 960 0 
L 960 1559 
C 960 1964 1114 2428 1549 2428 
C 2112 2428 2131 2048 2131 1829 
L 2131 0 
L 2618 0 
L 2618 1877 
z
" id="CMSS17-6e" transform="scale(0.015625)"/>
       <path d="M 2848 2808 
C 2483 2808 2170 2738 1914 2617 
C 1702 2777 1485 2808 1338 2808 
C 781 2808 358 2349 358 1814 
C 358 1468 550 1207 563 1195 
C 448 1035 384 863 384 672 
C 384 448 474 289 544 200 
C 211 -3 166 -314 166 -435 
C 166 -898 749 -1280 1498 -1280 
C 2253 -1280 2835 -898 2835 -428 
C 2835 448 1856 448 1587 448 
L 1069 448 
C 973 448 717 448 717 791 
C 717 921 774 1004 781 1010 
C 877 940 1075 832 1338 832 
C 1869 832 2310 1278 2310 1827 
C 2310 2132 2170 2355 2112 2432 
L 2131 2432 
C 2150 2432 2419 2432 2515 2432 
C 2720 2432 2739 2429 2918 2419 
L 2848 2808 
z
M 1338 1182 
C 1120 1182 813 1315 813 1823 
C 813 2375 1165 2464 1331 2464 
C 1549 2464 1856 2331 1856 1823 
C 1856 1271 1504 1182 1338 1182 
z
M 1581 -10 
C 1734 -10 2381 -10 2381 -442 
C 2381 -714 1984 -929 1504 -929 
C 1018 -929 621 -720 621 -435 
C 621 -403 621 -10 1062 -10 
L 1581 -10 
z
" id="CMSS17-67" transform="scale(0.015625)"/>
       <path d="M 2502 1377 
C 2502 1590 2490 2003 2285 2345 
C 2061 2713 1696 2816 1421 2816 
C 755 2816 192 2188 192 1375 
C 192 582 774 -64 1510 -64 
C 1798 -64 2150 19 2470 248 
C 2470 274 2458 414 2451 420 
C 2451 433 2432 630 2432 656 
C 2125 407 1773 325 1517 325 
C 1107 325 666 667 646 1377 
L 2502 1377 
z
M 698 1728 
C 781 2084 1062 2421 1421 2421 
C 1517 2421 1965 2421 2080 1728 
L 698 1728 
z
" id="CMSS17-65" transform="scale(0.015625)"/>
       <path d="M 2611 4416 
L 2138 4416 
L 2138 2438 
C 1939 2603 1613 2756 1254 2756 
C 672 2756 211 2131 211 1347 
C 211 562 666 -64 1235 -64 
C 1677 -64 1971 172 2125 306 
L 2125 -13 
L 2611 -13 
L 2611 4416 
z
M 2125 836 
C 2125 747 2125 653 1926 482 
C 1798 375 1645 325 1498 325 
C 1152 325 698 576 698 1340 
C 698 2134 1210 2368 1562 2368 
C 1798 2368 1990 2254 2125 2065 
L 2125 836 
z
" id="CMSS17-64" transform="scale(0.015625)"/>
       <path d="M 954 1363 
C 954 1965 1395 2368 1958 2368 
L 1958 2789 
C 1549 2789 1165 2585 934 2253 
L 934 2758 
L 480 2758 
L 480 0 
L 954 0 
L 954 1363 
z
" id="CMSS17-72" transform="scale(0.015625)"/>
       <path d="M 5581 4416 
L 5094 4416 
L 4557 2437 
C 4474 2118 4397 1801 4320 1482 
C 4205 1011 4122 681 4109 515 
L 4102 515 
C 4090 687 4006 1049 3904 1457 
C 3827 1795 3744 2131 3654 2462 
L 3123 4416 
L 2586 4416 
L 2080 2562 
L 1824 1549 
C 1632 747 1626 632 1613 505 
L 1606 505 
C 1606 543 1581 753 1402 1498 
C 1312 1868 1222 2244 1126 2601 
L 634 4416 
L 83 4416 
L 1299 0 
L 1830 0 
L 2336 1839 
L 2592 2851 
C 2765 3564 2803 3742 2816 3901 
L 2822 3901 
C 2822 3876 2880 3474 3130 2545 
L 3808 0 
L 4365 0 
L 5581 4416 
z
" id="CMSS17-57" transform="scale(0.015625)"/>
       <path d="M 1069 2368 
L 1901 2368 
L 1901 2737 
L 1069 2737 
L 1069 3520 
L 614 3520 
L 614 2737 
L 109 2737 
L 109 2368 
L 602 2368 
L 602 749 
C 602 384 685 -64 1107 -64 
C 1427 -64 1722 25 2003 172 
L 1901 548 
C 1747 414 1562 337 1363 337 
C 1082 337 1069 696 1069 856 
L 1069 2368 
z
" id="CMSS17-74" transform="scale(0.015625)"/>
       <path d="M 947 4416 
L 474 4416 
L 474 0 
L 947 0 
L 947 4416 
z
" id="CMSS17-6c" transform="scale(0.015625)"/>
       <path d="M 979 4183 
L 442 4183 
L 442 3648 
L 979 3648 
L 979 4183 
z
M 947 2739 
L 474 2739 
L 474 0 
L 947 0 
L 947 2739 
z
" id="CMSS17-69" transform="scale(0.015625)"/>
       <path d="M 2061 2627 
C 1683 2807 1389 2807 1197 2807 
C 742 2807 198 2648 198 2003 
C 198 1359 902 1218 1094 1179 
C 1389 1122 1715 1058 1715 740 
C 1715 337 1254 337 1171 337 
C 915 337 563 407 243 638 
L 166 210 
C 531 0 883 -64 1178 -64 
C 1965 -64 2163 416 2163 781 
C 2163 1094 1984 1305 1862 1401 
C 1651 1568 1574 1587 1050 1696 
C 960 1709 646 1779 646 2066 
C 646 2432 1050 2432 1139 2432 
C 1555 2432 1811 2303 1984 2208 
L 2061 2627 
z
" id="CMSS17-73" transform="scale(0.015625)"/>
      </defs>
      <use transform="scale(0.996264)" xlink:href="#CMSS17-4c"/>
      <use transform="translate(49.726246 0)scale(0.996264)" xlink:href="#CMSS17-7f"/>
      <use transform="translate(50.687105 0)scale(0.996264)" xlink:href="#CMSS17-61"/>
      <use transform="translate(95.609026 0)scale(0.996264)" xlink:href="#CMSS17-6e"/>
      <use transform="translate(143.813969 0)scale(0.996264)" xlink:href="#CMSS17-67"/>
      <use transform="translate(190.657593 0)scale(0.996264)" xlink:href="#CMSS17-65"/>
      <use transform="translate(263.525527 0)scale(0.996264)" xlink:href="#CMSS17-64"/>
      <use transform="translate(311.730471 0)scale(0.996264)" xlink:href="#CMSS17-65"/>
      <use transform="translate(353.369293 0)scale(0.996264)" xlink:href="#CMSS17-72"/>
      <use transform="translate(416.508178 0)scale(0.996264)" xlink:href="#CMSS17-57"/>
      <use transform="translate(502.14789 0)scale(0.996264)" xlink:href="#CMSS17-65"/>
      <use transform="translate(543.786712 0)scale(0.996264)" xlink:href="#CMSS17-72"/>
      <use transform="translate(575.696485 0)scale(0.996264)" xlink:href="#CMSS17-74"/>
      <use transform="translate(609.528052 0)scale(0.996264)" xlink:href="#CMSS17-65"/>
      <use transform="translate(651.166874 0)scale(0.996264)" xlink:href="#CMSS17-6c"/>
      <use transform="translate(673.347597 0)scale(0.996264)" xlink:href="#CMSS17-69"/>
      <use transform="translate(695.52832 0)scale(0.996264)" xlink:href="#CMSS17-73"/>
      <use transform="translate(731.441862 0)scale(0.996264)" xlink:href="#CMSS17-74"/>
      <use transform="translate(765.273428 0)scale(0.996264)" xlink:href="#CMSS17-65"/>
     </g>
    </g>
   </g>
   <g id="matplotlib.axis_2">
    <g id="ytick_1">
     <g id="line2d_14">
      <path clip-path="url(#pc66caa315d)" d="M 54 239.146656 
L 388.8 239.146656 
" style="fill:none;stroke:#cccccc;stroke-linecap:round;"/>
     </g>
     <g id="line2d_15">
      <defs>
       <path d="M 0 0 
L -6 0 
" id="md58fd670c8" style="stroke:#262626;stroke-width:1.25;"/>
      </defs>
      <g>
       <use style="fill:#262626;stroke:#262626;stroke-width:1.25;" x="54" xlink:href="#md58fd670c8" y="239.146656"/>
      </g>
     </g>
     <g id="text_4">
      <!-- $\mathdefault{10^{1}}$ -->
      <g style="fill:#262626;" transform="translate(29.172727 242.95183)scale(0.11 -0.11)">
       <use transform="scale(0.996264)" xlink:href="#CMR17-31"/>
       <use transform="translate(45.690477 0)scale(0.996264)" xlink:href="#CMR17-30"/>
       <use transform="translate(91.380954 36.153639)scale(0.697382)" xlink:href="#CMR17-31"/>
      </g>
     </g>
    </g>
    <g id="ytick_2">
     <g id="line2d_16">
      <path clip-path="url(#pc66caa315d)" d="M 54 174.24565 
L 388.8 174.24565 
" style="fill:none;stroke:#cccccc;stroke-linecap:round;"/>
     </g>
     <g id="line2d_17">
      <g>
       <use style="fill:#262626;stroke:#262626;stroke-width:1.25;" x="54" xlink:href="#md58fd670c8" y="174.24565"/>
      </g>
     </g>
     <g id="text_5">
      <!-- $\mathdefault{10^{2}}$ -->
      <g style="fill:#262626;" transform="translate(29.172727 178.050823)scale(0.11 -0.11)">
       <use transform="scale(0.996264)" xlink:href="#CMR17-31"/>
       <use transform="translate(45.690477 0)scale(0.996264)" xlink:href="#CMR17-30"/>
       <use transform="translate(91.380954 36.153639)scale(0.697382)" xlink:href="#CMR17-32"/>
      </g>
     </g>
    </g>
    <g id="ytick_3">
     <g id="line2d_18">
      <path clip-path="url(#pc66caa315d)" d="M 54 109.344643 
L 388.8 109.344643 
" style="fill:none;stroke:#cccccc;stroke-linecap:round;"/>
     </g>
     <g id="line2d_19">
      <g>
       <use style="fill:#262626;stroke:#262626;stroke-width:1.25;" x="54" xlink:href="#md58fd670c8" y="109.344643"/>
      </g>
     </g>
     <g id="text_6">
      <!-- $\mathdefault{10^{3}}$ -->
      <g style="fill:#262626;" transform="translate(29.172727 113.149816)scale(0.11 -0.11)">
       <defs>
        <path d="M 1414 2157 
C 1984 2157 2234 1662 2234 1090 
C 2234 320 1824 25 1453 25 
C 1114 25 563 194 390 693 
C 422 680 454 680 486 680 
C 640 680 755 782 755 948 
C 755 1133 614 1216 486 1216 
C 378 1216 211 1165 211 926 
C 211 335 787 -128 1466 -128 
C 2176 -128 2720 430 2720 1085 
C 2720 1707 2208 2157 1600 2227 
C 2086 2328 2554 2756 2554 3329 
C 2554 3820 2048 4179 1472 4179 
C 890 4179 378 3829 378 3329 
C 378 3110 544 3072 627 3072 
C 762 3072 877 3155 877 3321 
C 877 3486 762 3569 627 3569 
C 602 3569 570 3569 544 3557 
C 730 3959 1235 4032 1459 4032 
C 1683 4032 2106 3925 2106 3320 
C 2106 3143 2080 2828 1862 2550 
C 1670 2304 1453 2304 1242 2284 
C 1210 2284 1062 2269 1037 2269 
C 992 2263 966 2257 966 2208 
C 966 2163 973 2157 1101 2157 
L 1414 2157 
z
" id="CMR17-33" transform="scale(0.015625)"/>
       </defs>
       <use transform="scale(0.996264)" xlink:href="#CMR17-31"/>
       <use transform="translate(45.690477 0)scale(0.996264)" xlink:href="#CMR17-30"/>
       <use transform="translate(91.380954 36.153639)scale(0.697382)" xlink:href="#CMR17-33"/>
      </g>
     </g>
    </g>
    <g id="ytick_4">
     <g id="line2d_20">
      <path clip-path="url(#pc66caa315d)" d="M 54 44.443636 
L 388.8 44.443636 
" style="fill:none;stroke:#cccccc;stroke-linecap:round;"/>
     </g>
     <g id="line2d_21">
      <g>
       <use style="fill:#262626;stroke:#262626;stroke-width:1.25;" x="54" xlink:href="#md58fd670c8" y="44.443636"/>
      </g>
     </g>
     <g id="text_7">
      <!-- $\mathdefault{10^{4}}$ -->
      <g style="fill:#262626;" transform="translate(29.172727 48.24881)scale(0.11 -0.11)">
       <defs>
        <path d="M 2150 4122 
C 2150 4256 2144 4256 2029 4256 
L 128 1254 
L 128 1088 
L 1779 1088 
L 1779 457 
C 1779 224 1766 160 1318 160 
L 1197 160 
L 1197 0 
C 1402 0 1747 0 1965 0 
C 2182 0 2528 0 2733 0 
L 2733 160 
L 2611 160 
C 2163 160 2150 224 2150 457 
L 2150 1088 
L 2803 1088 
L 2803 1254 
L 2150 1254 
L 2150 4122 
z
M 1798 3703 
L 1798 1254 
L 256 1254 
L 1798 3703 
z
" id="CMR17-34" transform="scale(0.015625)"/>
       </defs>
       <use transform="scale(0.996264)" xlink:href="#CMR17-31"/>
       <use transform="translate(45.690477 0)scale(0.996264)" xlink:href="#CMR17-30"/>
       <use transform="translate(91.380954 36.153639)scale(0.697382)" xlink:href="#CMR17-34"/>
      </g>
     </g>
    </g>
    <g id="ytick_5">
     <g id="line2d_22">
      <defs>
       <path d="M 0 0 
L -4 0 
" id="m6fc988c901" style="stroke:#262626;"/>
      </defs>
      <g>
       <use style="fill:#262626;stroke:#262626;" x="54" xlink:href="#m6fc988c901" y="249.19995"/>
      </g>
     </g>
    </g>
    <g id="ytick_6">
     <g id="line2d_23">
      <g>
       <use style="fill:#262626;stroke:#262626;" x="54" xlink:href="#m6fc988c901" y="245.436214"/>
      </g>
     </g>
    </g>
    <g id="ytick_7">
     <g id="line2d_24">
      <g>
       <use style="fill:#262626;stroke:#262626;" x="54" xlink:href="#m6fc988c901" y="242.116364"/>
      </g>
     </g>
    </g>
    <g id="ytick_8">
     <g id="line2d_25">
      <g>
       <use style="fill:#262626;stroke:#262626;" x="54" xlink:href="#m6fc988c901" y="219.609507"/>
      </g>
     </g>
    </g>
    <g id="ytick_9">
     <g id="line2d_26">
      <g>
       <use style="fill:#262626;stroke:#262626;" x="54" xlink:href="#m6fc988c901" y="208.181007"/>
      </g>
     </g>
    </g>
    <g id="ytick_10">
     <g id="line2d_27">
      <g>
       <use style="fill:#262626;stroke:#262626;" x="54" xlink:href="#m6fc988c901" y="200.072357"/>
      </g>
     </g>
    </g>
    <g id="ytick_11">
     <g id="line2d_28">
      <g>
       <use style="fill:#262626;stroke:#262626;" x="54" xlink:href="#m6fc988c901" y="193.7828"/>
      </g>
     </g>
    </g>
    <g id="ytick_12">
     <g id="line2d_29">
      <g>
       <use style="fill:#262626;stroke:#262626;" x="54" xlink:href="#m6fc988c901" y="188.643857"/>
      </g>
     </g>
    </g>
    <g id="ytick_13">
     <g id="line2d_30">
      <g>
       <use style="fill:#262626;stroke:#262626;" x="54" xlink:href="#m6fc988c901" y="184.298943"/>
      </g>
     </g>
    </g>
    <g id="ytick_14">
     <g id="line2d_31">
      <g>
       <use style="fill:#262626;stroke:#262626;" x="54" xlink:href="#m6fc988c901" y="180.535207"/>
      </g>
     </g>
    </g>
    <g id="ytick_15">
     <g id="line2d_32">
      <g>
       <use style="fill:#262626;stroke:#262626;" x="54" xlink:href="#m6fc988c901" y="177.215357"/>
      </g>
     </g>
    </g>
    <g id="ytick_16">
     <g id="line2d_33">
      <g>
       <use style="fill:#262626;stroke:#262626;" x="54" xlink:href="#m6fc988c901" y="154.7085"/>
      </g>
     </g>
    </g>
    <g id="ytick_17">
     <g id="line2d_34">
      <g>
       <use style="fill:#262626;stroke:#262626;" x="54" xlink:href="#m6fc988c901" y="143.28"/>
      </g>
     </g>
    </g>
    <g id="ytick_18">
     <g id="line2d_35">
      <g>
       <use style="fill:#262626;stroke:#262626;" x="54" xlink:href="#m6fc988c901" y="135.17135"/>
      </g>
     </g>
    </g>
    <g id="ytick_19">
     <g id="line2d_36">
      <g>
       <use style="fill:#262626;stroke:#262626;" x="54" xlink:href="#m6fc988c901" y="128.881793"/>
      </g>
     </g>
    </g>
    <g id="ytick_20">
     <g id="line2d_37">
      <g>
       <use style="fill:#262626;stroke:#262626;" x="54" xlink:href="#m6fc988c901" y="123.74285"/>
      </g>
     </g>
    </g>
    <g id="ytick_21">
     <g id="line2d_38">
      <g>
       <use style="fill:#262626;stroke:#262626;" x="54" xlink:href="#m6fc988c901" y="119.397936"/>
      </g>
     </g>
    </g>
    <g id="ytick_22">
     <g id="line2d_39">
      <g>
       <use style="fill:#262626;stroke:#262626;" x="54" xlink:href="#m6fc988c901" y="115.6342"/>
      </g>
     </g>
    </g>
    <g id="ytick_23">
     <g id="line2d_40">
      <g>
       <use style="fill:#262626;stroke:#262626;" x="54" xlink:href="#m6fc988c901" y="112.31435"/>
      </g>
     </g>
    </g>
    <g id="ytick_24">
     <g id="line2d_41">
      <g>
       <use style="fill:#262626;stroke:#262626;" x="54" xlink:href="#m6fc988c901" y="89.807493"/>
      </g>
     </g>
    </g>
    <g id="ytick_25">
     <g id="line2d_42">
      <g>
       <use style="fill:#262626;stroke:#262626;" x="54" xlink:href="#m6fc988c901" y="78.378993"/>
      </g>
     </g>
    </g>
    <g id="ytick_26">
     <g id="line2d_43">
      <g>
       <use style="fill:#262626;stroke:#262626;" x="54" xlink:href="#m6fc988c901" y="70.270344"/>
      </g>
     </g>
    </g>
    <g id="ytick_27">
     <g id="line2d_44">
      <g>
       <use style="fill:#262626;stroke:#262626;" x="54" xlink:href="#m6fc988c901" y="63.980786"/>
      </g>
     </g>
    </g>
    <g id="ytick_28">
     <g id="line2d_45">
      <g>
       <use style="fill:#262626;stroke:#262626;" x="54" xlink:href="#m6fc988c901" y="58.841844"/>
      </g>
     </g>
    </g>
    <g id="ytick_29">
     <g id="line2d_46">
      <g>
       <use style="fill:#262626;stroke:#262626;" x="54" xlink:href="#m6fc988c901" y="54.49693"/>
      </g>
     </g>
    </g>
    <g id="ytick_30">
     <g id="line2d_47">
      <g>
       <use style="fill:#262626;stroke:#262626;" x="54" xlink:href="#m6fc988c901" y="50.733194"/>
      </g>
     </g>
    </g>
    <g id="ytick_31">
     <g id="line2d_48">
      <g>
       <use style="fill:#262626;stroke:#262626;" x="54" xlink:href="#m6fc988c901" y="47.413344"/>
      </g>
     </g>
    </g>
    <g id="text_8">
     <!-- Durchgeführte Operationen -->
     <g style="fill:#262626;" transform="translate(22.848131 209.959707)rotate(-90)scale(0.12 -0.12)">
      <defs>
       <path d="M 570 4416 
L 570 0 
L 2144 0 
C 3194 0 4000 980 4000 2170 
C 4000 3398 3194 4416 2144 4416 
L 570 4416 
z
M 1094 357 
L 1094 4059 
L 2003 4059 
C 2861 4059 3475 3277 3475 2170 
C 3475 1107 2867 357 2003 357 
L 1094 357 
z
" id="CMSS17-44" transform="scale(0.015625)"/>
       <path d="M 2618 2739 
L 2131 2739 
L 2131 972 
C 2131 498 1786 306 1421 306 
C 998 306 960 447 960 709 
L 960 2739 
L 474 2739 
L 474 678 
C 474 179 646 -64 1088 -64 
C 1306 -64 1798 -13 2144 306 
L 2144 0 
L 2618 0 
L 2618 2739 
z
" id="CMSS17-75" transform="scale(0.015625)"/>
       <path d="M 2464 2541 
C 2464 2585 2170 2714 2093 2739 
C 1882 2816 1613 2816 1542 2816 
C 710 2816 211 2093 211 1363 
C 211 595 768 -64 1517 -64 
C 1946 -64 2253 76 2502 242 
L 2464 664 
C 2189 453 1869 337 1523 337 
C 1024 337 698 774 698 1369 
C 698 1831 909 2414 1549 2414 
C 1901 2414 2099 2343 2394 2145 
L 2464 2541 
z
" id="CMSS17-63" transform="scale(0.015625)"/>
       <path d="M 2618 1891 
C 2618 2292 2522 2820 1798 2820 
C 1395 2820 1133 2623 947 2407 
L 947 4448 
L 474 4448 
L 474 32 
L 960 32 
L 960 1573 
C 960 1973 1114 2432 1549 2432 
C 2112 2432 2131 2056 2131 1839 
L 2131 32 
L 2618 32 
L 2618 1891 
z
" id="CMSS17-68" transform="scale(0.015625)"/>
       <path d="M 1075 2368 
L 1722 2368 
L 1722 2737 
L 1062 2737 
L 1062 3559 
C 1062 4014 1408 4092 1606 4092 
C 1670 4092 1850 4092 2080 4009 
L 2080 4429 
C 1933 4461 1754 4480 1613 4480 
C 1018 4480 602 3993 602 3359 
L 602 2737 
L 160 2737 
L 160 2368 
L 602 2368 
L 602 0 
L 1075 0 
L 1075 2368 
z
" id="CMSS17-66" transform="scale(0.015625)"/>
       <path d="M 4096 2178 
C 4096 3503 3219 4497 2214 4497 
C 1210 4497 333 3497 333 2178 
C 333 847 1222 -128 2214 -128 
C 3206 -128 4096 847 4096 2178 
z
M 2214 273 
C 1510 273 870 1057 870 2261 
C 870 3433 1549 4096 2214 4096 
C 2880 4096 3558 3433 3558 2261 
C 3558 1051 2912 273 2214 273 
z
" id="CMSS17-4f" transform="scale(0.015625)"/>
       <path d="M 966 333 
C 1178 129 1466 -5 1773 -5 
C 2368 -5 2880 603 2880 1412 
C 2880 2159 2496 2816 1946 2816 
C 1626 2816 1242 2702 954 2472 
L 954 2765 
L 480 2765 
L 480 -1216 
L 966 -1216 
L 966 333 
z
M 966 2100 
C 1018 2176 1235 2415 1587 2415 
C 2035 2415 2394 1960 2394 1412 
C 2394 787 1958 384 1530 384 
C 1402 384 1267 415 1139 523 
C 966 674 966 768 966 857 
L 966 2100 
z
" id="CMSS17-70" transform="scale(0.015625)"/>
       <path d="M 2829 1356 
C 2829 2176 2221 2816 1504 2816 
C 768 2816 173 2157 173 1356 
C 173 544 787 -64 1498 -64 
C 2227 -64 2829 563 2829 1356 
z
M 1504 337 
C 1050 337 659 709 659 1408 
C 659 2151 1114 2427 1498 2427 
C 1914 2427 2342 2126 2342 1408 
C 2342 683 1926 337 1504 337 
z
" id="CMSS17-6f" transform="scale(0.015625)"/>
      </defs>
      <use transform="scale(0.996264)" xlink:href="#CMSS17-44"/>
      <use transform="translate(67.542842 0)scale(0.996264)" xlink:href="#CMSS17-75"/>
      <use transform="translate(115.747785 0)scale(0.996264)" xlink:href="#CMSS17-72"/>
      <use transform="translate(147.657557 0)scale(0.996264)" xlink:href="#CMSS17-63"/>
      <use transform="translate(189.296379 0)scale(0.996264)" xlink:href="#CMSS17-68"/>
      <use transform="translate(237.501323 0)scale(0.996264)" xlink:href="#CMSS17-67"/>
      <use transform="translate(284.344946 0)scale(0.996264)" xlink:href="#CMSS17-65"/>
      <use transform="translate(325.983768 0)scale(0.996264)" xlink:href="#CMSS17-66"/>
      <use transform="translate(355.291087 0)scale(0.996264)" xlink:href="#CMSS17-7f"/>
      <use transform="translate(354.610427 0)scale(0.996264)" xlink:href="#CMSS17-75"/>
      <use transform="translate(402.81537 0)scale(0.996264)" xlink:href="#CMSS17-68"/>
      <use transform="translate(451.020313 0)scale(0.996264)" xlink:href="#CMSS17-72"/>
      <use transform="translate(482.930086 0)scale(0.996264)" xlink:href="#CMSS17-74"/>
      <use transform="translate(516.761652 0)scale(0.996264)" xlink:href="#CMSS17-65"/>
      <use transform="translate(589.629587 0)scale(0.996264)" xlink:href="#CMSS17-4f"/>
      <use transform="translate(658.653843 0)scale(0.996264)" xlink:href="#CMSS17-70"/>
      <use transform="translate(709.461225 0)scale(0.996264)" xlink:href="#CMSS17-65"/>
      <use transform="translate(751.100047 0)scale(0.996264)" xlink:href="#CMSS17-72"/>
      <use transform="translate(783.009819 0)scale(0.996264)" xlink:href="#CMSS17-61"/>
      <use transform="translate(827.93174 0)scale(0.996264)" xlink:href="#CMSS17-74"/>
      <use transform="translate(861.763306 0)scale(0.996264)" xlink:href="#CMSS17-69"/>
      <use transform="translate(883.944029 0)scale(0.996264)" xlink:href="#CMSS17-6f"/>
      <use transform="translate(930.787653 0)scale(0.996264)" xlink:href="#CMSS17-6e"/>
      <use transform="translate(978.992596 0)scale(0.996264)" xlink:href="#CMSS17-65"/>
      <use transform="translate(1020.631418 0)scale(0.996264)" xlink:href="#CMSS17-6e"/>
     </g>
    </g>
   </g>
   <g id="PolyCollection_1">
    <defs>
     <path d="M 69.218182 -90.61407 
L 69.218182 -45.883636 
L 160.840766 -66.944733 
L 214.436542 -78.863439 
L 252.46335 -87.214032 
L 281.959234 -112.895822 
L 306.059126 -118.179681 
L 326.435294 -122.627653 
L 344.085934 -126.468435 
L 359.654902 -141.11687 
L 373.581818 -144.150563 
L 373.581818 -223.730239 
L 373.581818 -223.730239 
L 359.654902 -217.757829 
L 344.085934 -211.076631 
L 326.435294 -203.495391 
L 306.059126 -194.733143 
L 281.959234 -184.352459 
L 252.46335 -171.616029 
L 214.436542 -155.128075 
L 160.840766 -131.697 
L 69.218182 -90.61407 
z
" id="m8ccf9dee4d" style="stroke:#4c72b0;stroke-opacity:0.3;"/>
    </defs>
    <g clip-path="url(#pc66caa315d)">
     <use style="fill:#4c72b0;fill-opacity:0.3;stroke:#4c72b0;stroke-opacity:0.3;" x="0" xlink:href="#m8ccf9dee4d" y="288"/>
    </g>
   </g>
   <g id="line2d_49">
    <path clip-path="url(#pc66caa315d)" d="M 69.218182 242.116364 
L 160.840766 221.055267 
L 214.436542 209.136561 
L 252.46335 200.785968 
L 281.959234 175.104178 
L 306.059126 169.820319 
L 326.435294 165.372347 
L 344.085934 161.531565 
L 359.654902 146.88313 
L 373.581818 143.849437 
" style="fill:none;stroke:#4c72b0;stroke-linecap:round;stroke-width:0.5;"/>
   </g>
   <g id="line2d_50">
    <path clip-path="url(#pc66caa315d)" d="M 69.218182 197.38593 
L 160.840766 156.303 
L 214.436542 132.871925 
L 252.46335 116.383971 
L 281.959234 103.647541 
L 306.059126 93.266857 
L 326.435294 84.504609 
L 344.085934 76.923369 
L 359.654902 70.242171 
L 373.581818 64.269761 
" style="fill:none;stroke:#4c72b0;stroke-linecap:round;stroke-width:0.5;"/>
   </g>
   <g id="line2d_51">
    <path clip-path="url(#pc66caa315d)" d="M 69.218182 208.225106 
L 160.840766 167.809052 
L 214.436542 142.836957 
L 252.46335 126.541871 
L 281.959234 112.170483 
L 306.059126 101.891759 
L 326.435294 91.853429 
L 344.085934 84.338393 
L 359.654902 76.528377 
L 373.581818 70.710679 
" style="fill:none;stroke:#dd8452;stroke-linecap:round;stroke-width:1.5;"/>
   </g>
   <g id="line2d_52">
    <path clip-path="url(#pc66caa315d)" d="M 69.218182 239.146656 
L 160.840766 219.609507 
L 214.436542 208.181007 
L 252.46335 200.072357 
L 281.959234 193.7828 
L 306.059126 188.643857 
L 326.435294 184.298943 
L 344.085934 180.535207 
L 359.654902 177.215357 
L 373.581818 174.24565 
" style="fill:none;stroke:#55a868;stroke-dasharray:1.5,2.475;stroke-dashoffset:0;stroke-width:1.5;"/>
   </g>
   <g id="line2d_53">
    <path clip-path="url(#pc66caa315d)" d="M 69.218182 174.24565 
L 160.840766 135.17135 
L 214.436542 112.31435 
L 252.46335 96.097051 
L 281.959234 83.517936 
L 306.059126 73.240051 
L 326.435294 64.550223 
L 344.085934 57.022751 
L 359.654902 50.383051 
L 373.581818 44.443636 
" style="fill:none;stroke:#55a868;stroke-dasharray:1.5,2.475;stroke-dashoffset:0;stroke-width:1.5;"/>
   </g>
   <g id="patch_3">
    <path d="M 54 252 
L 54 34.56 
" style="fill:none;stroke:#262626;stroke-linecap:square;stroke-linejoin:miter;stroke-width:1.25;"/>
   </g>
   <g id="patch_4">
    <path d="M 388.8 252 
L 388.8 34.56 
" style="fill:none;stroke:#262626;stroke-linecap:square;stroke-linejoin:miter;stroke-width:1.25;"/>
   </g>
   <g id="patch_5">
    <path d="M 54 252 
L 388.8 252 
" style="fill:none;stroke:#262626;stroke-linecap:square;stroke-linejoin:miter;stroke-width:1.25;"/>
   </g>
   <g id="patch_6">
    <path d="M 54 34.56 
L 388.8 34.56 
" style="fill:none;stroke:#262626;stroke-linecap:square;stroke-linejoin:miter;stroke-width:1.25;"/>
   </g>
   <g id="text_9">
    <!-- 95\% vorsortiert -->
    <g style="fill:#262626;" transform="translate(184.097243 28.56)scale(0.12 -0.12)">
     <defs>
      <path d="M 435 174 
C 614 21 845 -128 1235 -128 
C 2010 -128 2752 721 2752 2095 
C 2752 3932 1952 4229 1523 4229 
C 1094 4229 819 4041 582 3741 
C 301 3397 250 3090 250 2733 
C 250 2307 326 2045 506 1745 
C 749 1357 973 1275 1222 1275 
C 1600 1275 1978 1459 2234 1776 
C 2189 902 1798 267 1235 267 
C 1005 267 819 339 634 516 
L 435 174 
z
M 2214 2746 
C 2221 2703 2221 2622 2221 2596 
C 2221 2074 1914 1664 1466 1664 
C 1171 1664 1018 1813 902 2006 
C 762 2249 755 2485 755 2733 
C 755 2976 755 3244 934 3511 
C 1069 3703 1235 3840 1523 3840 
C 2112 3840 2208 3000 2214 2746 
z
" id="CMSS17-39" transform="scale(0.015625)"/>
      <path d="M 934 3752 
L 2502 3752 
L 2502 4160 
L 467 4160 
L 467 1781 
L 896 1781 
C 1011 2046 1248 2240 1555 2240 
C 1843 2240 2163 1989 2163 1266 
C 2163 493 1709 267 1376 267 
C 966 267 589 512 422 851 
L 218 499 
C 512 49 992 -128 1376 -128 
C 2118 -128 2701 497 2701 1253 
C 2701 2030 2182 2629 1562 2629 
C 1338 2629 1120 2553 934 2399 
L 934 3752 
z
" id="CMSS17-35" transform="scale(0.015625)"/>
      <path d="M 3923 4583 
C 3962 4647 3962 4679 3962 4685 
C 3962 4755 3904 4800 3853 4800 
C 3782 4800 3750 4749 3718 4685 
L 1101 -104 
C 1088 -129 1062 -167 1062 -206 
C 1062 -276 1120 -320 1178 -320 
C 1235 -320 1248 -295 1299 -206 
L 3923 4583 
z
M 4678 959 
C 4678 1698 4282 2240 3846 2240 
C 3418 2240 3008 1711 3008 959 
C 3008 208 3418 -320 3846 -320 
C 4288 -320 4678 221 4678 959 
z
M 3846 68 
C 3712 68 3494 189 3494 959 
C 3494 1724 3712 1851 3846 1851 
C 4083 1851 4211 1386 4211 959 
C 4211 533 4083 68 3846 68 
z
M 2003 3519 
C 2003 4258 1606 4800 1171 4800 
C 742 4800 333 4271 333 3519 
C 333 2768 742 2240 1171 2240 
C 1613 2240 2003 2781 2003 3519 
z
M 1171 2628 
C 1037 2628 819 2749 819 3519 
C 819 4284 1037 4411 1171 4411 
C 1408 4411 1536 3946 1536 3519 
C 1536 3093 1408 2628 1171 2628 
z
" id="CMSS17-25" transform="scale(0.015625)"/>
      <path d="M 2675 2752 
L 2176 2752 
L 1747 1556 
C 1613 1165 1421 627 1389 352 
L 1382 352 
C 1370 468 1318 634 1286 749 
C 1248 890 1197 1056 1158 1172 
L 595 2752 
L 83 2752 
L 1094 0 
L 1664 0 
L 2675 2752 
z
" id="CMSS17-76" transform="scale(0.015625)"/>
     </defs>
     <use transform="scale(0.996264)" xlink:href="#CMSS17-39"/>
     <use transform="translate(46.843624 0)scale(0.996264)" xlink:href="#CMSS17-35"/>
     <use transform="translate(93.687247 0)scale(0.996264)" xlink:href="#CMSS17-25"/>
     <use transform="translate(202.989096 0)scale(0.996264)" xlink:href="#CMSS17-76"/>
     <use transform="translate(245.989238 0)scale(0.996264)" xlink:href="#CMSS17-6f"/>
     <use transform="translate(290.230407 0)scale(0.996264)" xlink:href="#CMSS17-72"/>
     <use transform="translate(322.14018 0)scale(0.996264)" xlink:href="#CMSS17-73"/>
     <use transform="translate(358.053722 0)scale(0.996264)" xlink:href="#CMSS17-6f"/>
     <use transform="translate(402.294891 0)scale(0.996264)" xlink:href="#CMSS17-72"/>
     <use transform="translate(434.204664 0)scale(0.996264)" xlink:href="#CMSS17-74"/>
     <use transform="translate(468.036231 0)scale(0.996264)" xlink:href="#CMSS17-69"/>
     <use transform="translate(490.216954 0)scale(0.996264)" xlink:href="#CMSS17-65"/>
     <use transform="translate(531.855776 0)scale(0.996264)" xlink:href="#CMSS17-72"/>
     <use transform="translate(563.765548 0)scale(0.996264)" xlink:href="#CMSS17-74"/>
    </g>
   </g>
   <g id="legend_1">
    <g id="patch_7">
     <path d="M 61.7 92.40064 
L 205.893831 92.40064 
Q 208.093831 92.40064 208.093831 90.20064 
L 208.093831 42.26 
Q 208.093831 40.06 205.893831 40.06 
L 61.7 40.06 
Q 59.5 40.06 59.5 42.26 
L 59.5 90.20064 
Q 59.5 92.40064 61.7 92.40064 
z
" style="fill:#ffffff;opacity:0.8;stroke:#cccccc;stroke-linejoin:miter;"/>
    </g>
    <g id="line2d_54">
     <path d="M 63.9 48.829178 
L 85.9 48.829178 
" style="fill:none;stroke:#4c72b0;stroke-linecap:round;stroke-width:0.5;"/>
    </g>
    <g id="line2d_55"/>
    <g id="text_10">
     <!-- Min / Max -->
     <g style="fill:#262626;" transform="translate(94.7 52.679178)scale(0.11 -0.11)">
      <defs>
       <path d="M 3194 2371 
L 2886 1473 
C 2835 1307 2662 791 2624 587 
L 2618 587 
C 2598 715 2560 849 2458 1174 
C 2400 1365 2336 1562 2272 1741 
L 1325 4416 
L 576 4416 
L 576 0 
L 1075 0 
L 1075 3900 
L 1082 3900 
C 1082 3894 1139 3613 1530 2499 
L 2374 96 
L 2848 96 
L 3610 2231 
C 3661 2378 3821 2843 3891 3066 
C 3955 3257 4115 3728 4154 3913 
L 4160 3913 
L 4160 0 
L 4666 0 
L 4666 4416 
L 3923 4416 
L 3194 2371 
z
" id="CMSS17-4d" transform="scale(0.015625)"/>
       <path d="M 2637 4545 
C 2669 4627 2669 4640 2669 4653 
C 2669 4729 2611 4768 2560 4768 
C 2483 4768 2458 4717 2432 4640 
L 365 -1377 
C 333 -1460 333 -1473 333 -1486 
C 333 -1562 390 -1600 442 -1600 
C 518 -1600 544 -1549 570 -1473 
L 2637 4545 
z
" id="CMSS17-2f" transform="scale(0.015625)"/>
       <path d="M 1587 1414 
L 2656 2739 
L 2099 2739 
L 1363 1777 
L 602 2739 
L 32 2739 
L 1139 1414 
L 0 0 
L 563 0 
L 1363 1121 
L 2195 0 
L 2758 0 
L 1587 1414 
z
" id="CMSS17-78" transform="scale(0.015625)"/>
      </defs>
      <use transform="scale(0.996264)" xlink:href="#CMSS17-4d"/>
      <use transform="translate(81.67603 0)scale(0.996264)" xlink:href="#CMSS17-69"/>
      <use transform="translate(103.856753 0)scale(0.996264)" xlink:href="#CMSS17-6e"/>
      <use transform="translate(183.290809 0)scale(0.996264)" xlink:href="#CMSS17-2f"/>
      <use transform="translate(261.363545 0)scale(0.996264)" xlink:href="#CMSS17-4d"/>
      <use transform="translate(343.039575 0)scale(0.996264)" xlink:href="#CMSS17-61"/>
      <use transform="translate(387.961496 0)scale(0.996264)" xlink:href="#CMSS17-78"/>
     </g>
    </g>
    <g id="line2d_56">
     <path d="M 63.9 64.768904 
L 85.9 64.768904 
" style="fill:none;stroke:#dd8452;stroke-linecap:round;stroke-width:1.5;"/>
    </g>
    <g id="line2d_57"/>
    <g id="text_11">
     <!-- Mittelwert -->
     <g style="fill:#262626;" transform="translate(94.7 68.618904)scale(0.11 -0.11)">
      <defs>
       <path d="M 4013 2752 
L 3526 2752 
L 3187 1601 
C 3117 1358 2918 685 2893 371 
L 2886 371 
C 2874 564 2765 1024 2586 1633 
L 2259 2752 
L 1818 2752 
L 1498 1658 
C 1338 1101 1216 627 1203 371 
L 1197 371 
C 1171 749 909 1633 870 1773 
L 582 2752 
L 83 2752 
L 915 0 
L 1402 0 
C 1734 1096 1990 1943 2010 2370 
C 2022 2160 2131 1707 2195 1484 
L 2618 0 
L 3181 0 
L 4013 2752 
z
" id="CMSS17-77" transform="scale(0.015625)"/>
      </defs>
      <use transform="scale(0.996264)" xlink:href="#CMSS17-4d"/>
      <use transform="translate(81.67603 0)scale(0.996264)" xlink:href="#CMSS17-69"/>
      <use transform="translate(103.856753 0)scale(0.996264)" xlink:href="#CMSS17-74"/>
      <use transform="translate(137.68832 0)scale(0.996264)" xlink:href="#CMSS17-74"/>
      <use transform="translate(171.519886 0)scale(0.996264)" xlink:href="#CMSS17-65"/>
      <use transform="translate(213.158708 0)scale(0.996264)" xlink:href="#CMSS17-6c"/>
      <use transform="translate(235.339431 0)scale(0.996264)" xlink:href="#CMSS17-77"/>
      <use transform="translate(296.556523 0)scale(0.996264)" xlink:href="#CMSS17-65"/>
      <use transform="translate(338.195345 0)scale(0.996264)" xlink:href="#CMSS17-72"/>
      <use transform="translate(370.105117 0)scale(0.996264)" xlink:href="#CMSS17-74"/>
     </g>
    </g>
    <g id="line2d_58">
     <path d="M 63.9 81.410914 
L 85.9 81.410914 
" style="fill:none;stroke:#55a868;stroke-dasharray:1.5,2.475;stroke-dashoffset:0;stroke-width:1.5;"/>
    </g>
    <g id="line2d_59"/>
    <g id="text_12">
     <!-- Hilfslinien, $\sf \mathcal{O}(n)$, $\sf \mathcal{O}(n^2)$ -->
     <g style="fill:#262626;" transform="translate(94.7 85.260914)scale(0.11 -0.11)">
      <defs>
       <path d="M 3674 4416 
L 3136 4416 
L 3136 2501 
L 1101 2501 
L 1101 4416 
L 563 4416 
L 563 0 
L 1101 0 
L 1101 2112 
L 3136 2112 
L 3136 0 
L 3674 0 
L 3674 4416 
z
" id="CMSS17-48" transform="scale(0.015625)"/>
       <path d="M 1088 6 
L 1088 510 
L 576 510 
L 576 0 
L 736 0 
L 570 -800 
L 826 -800 
L 1088 6 
z
" id="CMSS17-2c" transform="scale(0.015625)"/>
       <path d="M 4973 3111 
C 4973 3928 4614 4544 3834 4544 
C 3168 4544 2605 4004 2560 3966 
C 2048 3458 1856 2879 1856 2867 
C 1856 2828 1888 2822 1920 2822 
C 2042 2822 2144 2886 2240 2957 
C 2355 3040 2362 3060 2432 3208 
C 2490 3337 2637 3651 2874 3922 
C 3027 4096 3155 4192 3411 4192 
C 4032 4192 4429 3678 4429 2835 
C 4429 1523 3501 224 2317 224 
C 1408 224 909 950 909 1870 
C 909 2744 1357 3709 2291 4261 
C 2355 4300 2547 4416 2547 4499 
C 2547 4544 2496 4544 2483 4544 
C 2259 4544 365 3522 365 1594 
C 365 694 832 -128 1894 -128 
C 3142 -128 4973 1132 4973 3111 
z
" id="CMSY10-4f" transform="scale(0.015625)"/>
       <path d="M 1958 -1561 
C 1958 -1555 1958 -1542 1939 -1523 
C 1645 -1224 858 -407 858 1581 
C 858 3569 1632 4379 1946 4697 
C 1946 4704 1958 4717 1958 4736 
C 1958 4755 1939 4768 1914 4768 
C 1843 4768 1299 4296 986 3594 
C 666 2887 576 2199 576 1588 
C 576 1128 621 351 1005 -471 
C 1312 -1135 1837 -1600 1914 -1600 
C 1946 -1600 1958 -1587 1958 -1561 
z
" id="CMR17-28" transform="scale(0.015625)"/>
       <path d="M 1683 1581 
C 1683 2040 1638 2817 1254 3639 
C 947 4303 422 4768 346 4768 
C 326 4768 301 4761 301 4729 
C 301 4717 307 4710 314 4697 
C 621 4378 1402 3568 1402 1584 
C 1402 -407 627 -1217 314 -1537 
C 307 -1549 301 -1556 301 -1568 
C 301 -1600 326 -1600 346 -1600 
C 416 -1600 960 -1128 1274 -426 
C 1594 281 1683 969 1683 1581 
z
" id="CMR17-29" transform="scale(0.015625)"/>
       <path d="M 1651 1357 
C 1830 1541 2099 1764 2285 1987 
C 2464 2204 2701 2511 2701 2957 
C 2701 3657 2227 4288 1421 4288 
C 787 4288 422 3893 250 3274 
L 499 2929 
C 640 3510 838 3880 1338 3880 
C 1888 3880 2195 3433 2195 2942 
C 2195 2355 1747 1901 1408 1563 
C 1030 1187 659 804 301 408 
L 301 0 
L 2701 0 
L 2701 433 
L 1613 433 
C 1536 433 1459 433 1382 433 
L 742 433 
L 742 439 
L 1651 1357 
z
" id="CMSS17-32" transform="scale(0.015625)"/>
      </defs>
      <use transform="scale(0.996264)" xlink:href="#CMSS17-48"/>
      <use transform="translate(66.061519 0)scale(0.996264)" xlink:href="#CMSS17-69"/>
      <use transform="translate(88.242242 0)scale(0.996264)" xlink:href="#CMSS17-6c"/>
      <use transform="translate(110.422965 0)scale(0.996264)" xlink:href="#CMSS17-66"/>
      <use transform="translate(139.049624 0)scale(0.996264)" xlink:href="#CMSS17-73"/>
      <use transform="translate(174.963166 0)scale(0.996264)" xlink:href="#CMSS17-6c"/>
      <use transform="translate(197.143889 0)scale(0.996264)" xlink:href="#CMSS17-69"/>
      <use transform="translate(219.324612 0)scale(0.996264)" xlink:href="#CMSS17-6e"/>
      <use transform="translate(267.529555 0)scale(0.996264)" xlink:href="#CMSS17-69"/>
      <use transform="translate(289.710278 0)scale(0.996264)" xlink:href="#CMSS17-65"/>
      <use transform="translate(331.3491 0)scale(0.996264)" xlink:href="#CMSS17-6e"/>
      <use transform="translate(379.554044 0)scale(0.996264)" xlink:href="#CMSS17-2c"/>
      <use transform="translate(436.807361 0)scale(0.996264)" xlink:href="#CMSY10-4f"/>
      <use transform="translate(518.888807 0)scale(0.996264)" xlink:href="#CMR17-28"/>
      <use transform="translate(554.169575 0)scale(0.996264)" xlink:href="#CMSS17-6e"/>
      <use transform="translate(602.374518 0)scale(0.996264)" xlink:href="#CMR17-29"/>
      <use transform="translate(637.655286 0)scale(0.996264)" xlink:href="#CMSS17-2c"/>
      <use transform="translate(694.908604 0)scale(0.996264)" xlink:href="#CMSY10-4f"/>
      <use transform="translate(776.99005 0)scale(0.996264)" xlink:href="#CMR17-28"/>
      <use transform="translate(812.270818 0)scale(0.996264)" xlink:href="#CMSS17-6e"/>
      <use transform="translate(860.475761 36.153639)scale(0.697382)" xlink:href="#CMSS17-32"/>
      <use transform="translate(893.764274 0)scale(0.996264)" xlink:href="#CMR17-29"/>
     </g>
    </g>
   </g>
  </g>
 </g>
 <defs>
  <clipPath id="pc66caa315d">
   <rect height="217.44" width="334.8" x="54" y="34.56"/>
  </clipPath>
 </defs>
</svg>
