<?xml version="1.0" encoding="utf-8" standalone="no"?>
<!DOCTYPE svg PUBLIC "-//W3C//DTD SVG 1.1//EN"
  "http://www.w3.org/Graphics/SVG/1.1/DTD/svg11.dtd">
<svg xmlns:xlink="http://www.w3.org/1999/xlink" width="460.8pt" height="345.6pt" viewBox="0 0 460.8 345.6" xmlns="http://www.w3.org/2000/svg" version="1.1">
 <metadata>
  <rdf:RDF xmlns:dc="http://purl.org/dc/elements/1.1/" xmlns:cc="http://creativecommons.org/ns#" xmlns:rdf="http://www.w3.org/1999/02/22-rdf-syntax-ns#">
   <cc:Work>
    <dc:type rdf:resource="http://purl.org/dc/dcmitype/StillImage"/>
    <dc:date>2023-06-29T08:06:23.997075</dc:date>
    <dc:format>image/svg+xml</dc:format>
    <dc:creator>
     <cc:Agent>
      <dc:title>Matplotlib v3.7.1, https://matplotlib.org/</dc:title>
     </cc:Agent>
    </dc:creator>
   </cc:Work>
  </rdf:RDF>
 </metadata>
 <defs>
  <style type="text/css">*{stroke-linejoin: round; stroke-linecap: butt}</style>
 </defs>
 <g id="figure_1">
  <g id="patch_1">
   <path d="M 0 345.6 
L 460.8 345.6 
L 460.8 0 
L 0 0 
z
" style="fill: #ffffff"/>
  </g>
  <g id="axes_1">
   <g id="patch_2">
    <path d="M 71.3925 279 
L 441.36 279 
L 441.36 19.44 
L 71.3925 19.44 
z
" style="fill: #ffffff"/>
   </g>
   <g id="matplotlib.axis_1">
    <g id="xtick_1">
     <g id="line2d_1">
      <defs>
       <path id="m30b2f67d55" d="M 0 0 
L 0 6 
" style="stroke: #262626; stroke-width: 1.25"/>
      </defs>
      <g>
       <use xlink:href="#m30b2f67d55" x="88.209205" y="279" style="fill: #262626; stroke: #262626; stroke-width: 1.25"/>
      </g>
     </g>
     <g id="text_1">
      <!-- 0 -->
      <g style="fill: #262626" transform="translate(82.960142 301.037422) scale(0.165 -0.165)">
       <defs>
        <path id="DejaVuSans-30" d="M 2034 4250 
Q 1547 4250 1301 3770 
Q 1056 3291 1056 2328 
Q 1056 1369 1301 889 
Q 1547 409 2034 409 
Q 2525 409 2770 889 
Q 3016 1369 3016 2328 
Q 3016 3291 2770 3770 
Q 2525 4250 2034 4250 
z
M 2034 4750 
Q 2819 4750 3233 4129 
Q 3647 3509 3647 2328 
Q 3647 1150 3233 529 
Q 2819 -91 2034 -91 
Q 1250 -91 836 529 
Q 422 1150 422 2328 
Q 422 3509 836 4129 
Q 1250 4750 2034 4750 
z
" transform="scale(0.015625)"/>
       </defs>
       <use xlink:href="#DejaVuSans-30"/>
      </g>
     </g>
    </g>
    <g id="xtick_2">
     <g id="line2d_2">
      <g>
       <use xlink:href="#m30b2f67d55" x="141.595568" y="279" style="fill: #262626; stroke: #262626; stroke-width: 1.25"/>
      </g>
     </g>
     <g id="text_2">
      <!-- 20 -->
      <g style="fill: #262626" transform="translate(131.097443 301.037422) scale(0.165 -0.165)">
       <defs>
        <path id="DejaVuSans-32" d="M 1228 531 
L 3431 531 
L 3431 0 
L 469 0 
L 469 531 
Q 828 903 1448 1529 
Q 2069 2156 2228 2338 
Q 2531 2678 2651 2914 
Q 2772 3150 2772 3378 
Q 2772 3750 2511 3984 
Q 2250 4219 1831 4219 
Q 1534 4219 1204 4116 
Q 875 4013 500 3803 
L 500 4441 
Q 881 4594 1212 4672 
Q 1544 4750 1819 4750 
Q 2544 4750 2975 4387 
Q 3406 4025 3406 3419 
Q 3406 3131 3298 2873 
Q 3191 2616 2906 2266 
Q 2828 2175 2409 1742 
Q 1991 1309 1228 531 
z
" transform="scale(0.015625)"/>
       </defs>
       <use xlink:href="#DejaVuSans-32"/>
       <use xlink:href="#DejaVuSans-30" x="63.623047"/>
      </g>
     </g>
    </g>
    <g id="xtick_3">
     <g id="line2d_3">
      <g>
       <use xlink:href="#m30b2f67d55" x="194.981932" y="279" style="fill: #262626; stroke: #262626; stroke-width: 1.25"/>
      </g>
     </g>
     <g id="text_3">
      <!-- 40 -->
      <g style="fill: #262626" transform="translate(184.483807 301.037422) scale(0.165 -0.165)">
       <defs>
        <path id="DejaVuSans-34" d="M 2419 4116 
L 825 1625 
L 2419 1625 
L 2419 4116 
z
M 2253 4666 
L 3047 4666 
L 3047 1625 
L 3713 1625 
L 3713 1100 
L 3047 1100 
L 3047 0 
L 2419 0 
L 2419 1100 
L 313 1100 
L 313 1709 
L 2253 4666 
z
" transform="scale(0.015625)"/>
       </defs>
       <use xlink:href="#DejaVuSans-34"/>
       <use xlink:href="#DejaVuSans-30" x="63.623047"/>
      </g>
     </g>
    </g>
    <g id="xtick_4">
     <g id="line2d_4">
      <g>
       <use xlink:href="#m30b2f67d55" x="248.368295" y="279" style="fill: #262626; stroke: #262626; stroke-width: 1.25"/>
      </g>
     </g>
     <g id="text_4">
      <!-- 60 -->
      <g style="fill: #262626" transform="translate(237.87017 301.037422) scale(0.165 -0.165)">
       <defs>
        <path id="DejaVuSans-36" d="M 2113 2584 
Q 1688 2584 1439 2293 
Q 1191 2003 1191 1497 
Q 1191 994 1439 701 
Q 1688 409 2113 409 
Q 2538 409 2786 701 
Q 3034 994 3034 1497 
Q 3034 2003 2786 2293 
Q 2538 2584 2113 2584 
z
M 3366 4563 
L 3366 3988 
Q 3128 4100 2886 4159 
Q 2644 4219 2406 4219 
Q 1781 4219 1451 3797 
Q 1122 3375 1075 2522 
Q 1259 2794 1537 2939 
Q 1816 3084 2150 3084 
Q 2853 3084 3261 2657 
Q 3669 2231 3669 1497 
Q 3669 778 3244 343 
Q 2819 -91 2113 -91 
Q 1303 -91 875 529 
Q 447 1150 447 2328 
Q 447 3434 972 4092 
Q 1497 4750 2381 4750 
Q 2619 4750 2861 4703 
Q 3103 4656 3366 4563 
z
" transform="scale(0.015625)"/>
       </defs>
       <use xlink:href="#DejaVuSans-36"/>
       <use xlink:href="#DejaVuSans-30" x="63.623047"/>
      </g>
     </g>
    </g>
    <g id="xtick_5">
     <g id="line2d_5">
      <g>
       <use xlink:href="#m30b2f67d55" x="301.754659" y="279" style="fill: #262626; stroke: #262626; stroke-width: 1.25"/>
      </g>
     </g>
     <g id="text_5">
      <!-- 80 -->
      <g style="fill: #262626" transform="translate(291.256534 301.037422) scale(0.165 -0.165)">
       <defs>
        <path id="DejaVuSans-38" d="M 2034 2216 
Q 1584 2216 1326 1975 
Q 1069 1734 1069 1313 
Q 1069 891 1326 650 
Q 1584 409 2034 409 
Q 2484 409 2743 651 
Q 3003 894 3003 1313 
Q 3003 1734 2745 1975 
Q 2488 2216 2034 2216 
z
M 1403 2484 
Q 997 2584 770 2862 
Q 544 3141 544 3541 
Q 544 4100 942 4425 
Q 1341 4750 2034 4750 
Q 2731 4750 3128 4425 
Q 3525 4100 3525 3541 
Q 3525 3141 3298 2862 
Q 3072 2584 2669 2484 
Q 3125 2378 3379 2068 
Q 3634 1759 3634 1313 
Q 3634 634 3220 271 
Q 2806 -91 2034 -91 
Q 1263 -91 848 271 
Q 434 634 434 1313 
Q 434 1759 690 2068 
Q 947 2378 1403 2484 
z
M 1172 3481 
Q 1172 3119 1398 2916 
Q 1625 2713 2034 2713 
Q 2441 2713 2670 2916 
Q 2900 3119 2900 3481 
Q 2900 3844 2670 4047 
Q 2441 4250 2034 4250 
Q 1625 4250 1398 4047 
Q 1172 3844 1172 3481 
z
" transform="scale(0.015625)"/>
       </defs>
       <use xlink:href="#DejaVuSans-38"/>
       <use xlink:href="#DejaVuSans-30" x="63.623047"/>
      </g>
     </g>
    </g>
    <g id="xtick_6">
     <g id="line2d_6">
      <g>
       <use xlink:href="#m30b2f67d55" x="355.141023" y="279" style="fill: #262626; stroke: #262626; stroke-width: 1.25"/>
      </g>
     </g>
     <g id="text_6">
      <!-- 100 -->
      <g style="fill: #262626" transform="translate(339.393835 301.037422) scale(0.165 -0.165)">
       <defs>
        <path id="DejaVuSans-31" d="M 794 531 
L 1825 531 
L 1825 4091 
L 703 3866 
L 703 4441 
L 1819 4666 
L 2450 4666 
L 2450 531 
L 3481 531 
L 3481 0 
L 794 0 
L 794 531 
z
" transform="scale(0.015625)"/>
       </defs>
       <use xlink:href="#DejaVuSans-31"/>
       <use xlink:href="#DejaVuSans-30" x="63.623047"/>
       <use xlink:href="#DejaVuSans-30" x="127.246094"/>
      </g>
     </g>
    </g>
    <g id="xtick_7">
     <g id="line2d_7">
      <g>
       <use xlink:href="#m30b2f67d55" x="408.527386" y="279" style="fill: #262626; stroke: #262626; stroke-width: 1.25"/>
      </g>
     </g>
     <g id="text_7">
      <!-- 120 -->
      <g style="fill: #262626" transform="translate(392.780199 301.037422) scale(0.165 -0.165)">
       <use xlink:href="#DejaVuSans-31"/>
       <use xlink:href="#DejaVuSans-32" x="63.623047"/>
       <use xlink:href="#DejaVuSans-30" x="127.246094"/>
      </g>
     </g>
    </g>
    <g id="text_8">
     <!-- Zeit /s -->
     <g style="fill: #262626" transform="translate(228.064219 322.146094) scale(0.18 -0.18)">
      <defs>
       <path id="DejaVuSans-5a" d="M 359 4666 
L 4025 4666 
L 4025 4184 
L 1075 531 
L 4097 531 
L 4097 0 
L 288 0 
L 288 481 
L 3238 4134 
L 359 4134 
L 359 4666 
z
" transform="scale(0.015625)"/>
       <path id="DejaVuSans-65" d="M 3597 1894 
L 3597 1613 
L 953 1613 
Q 991 1019 1311 708 
Q 1631 397 2203 397 
Q 2534 397 2845 478 
Q 3156 559 3463 722 
L 3463 178 
Q 3153 47 2828 -22 
Q 2503 -91 2169 -91 
Q 1331 -91 842 396 
Q 353 884 353 1716 
Q 353 2575 817 3079 
Q 1281 3584 2069 3584 
Q 2775 3584 3186 3129 
Q 3597 2675 3597 1894 
z
M 3022 2063 
Q 3016 2534 2758 2815 
Q 2500 3097 2075 3097 
Q 1594 3097 1305 2825 
Q 1016 2553 972 2059 
L 3022 2063 
z
" transform="scale(0.015625)"/>
       <path id="DejaVuSans-69" d="M 603 3500 
L 1178 3500 
L 1178 0 
L 603 0 
L 603 3500 
z
M 603 4863 
L 1178 4863 
L 1178 4134 
L 603 4134 
L 603 4863 
z
" transform="scale(0.015625)"/>
       <path id="DejaVuSans-74" d="M 1172 4494 
L 1172 3500 
L 2356 3500 
L 2356 3053 
L 1172 3053 
L 1172 1153 
Q 1172 725 1289 603 
Q 1406 481 1766 481 
L 2356 481 
L 2356 0 
L 1766 0 
Q 1100 0 847 248 
Q 594 497 594 1153 
L 594 3053 
L 172 3053 
L 172 3500 
L 594 3500 
L 594 4494 
L 1172 4494 
z
" transform="scale(0.015625)"/>
       <path id="DejaVuSans-20" transform="scale(0.015625)"/>
       <path id="DejaVuSans-2f" d="M 1625 4666 
L 2156 4666 
L 531 -594 
L 0 -594 
L 1625 4666 
z
" transform="scale(0.015625)"/>
       <path id="DejaVuSans-73" d="M 2834 3397 
L 2834 2853 
Q 2591 2978 2328 3040 
Q 2066 3103 1784 3103 
Q 1356 3103 1142 2972 
Q 928 2841 928 2578 
Q 928 2378 1081 2264 
Q 1234 2150 1697 2047 
L 1894 2003 
Q 2506 1872 2764 1633 
Q 3022 1394 3022 966 
Q 3022 478 2636 193 
Q 2250 -91 1575 -91 
Q 1294 -91 989 -36 
Q 684 19 347 128 
L 347 722 
Q 666 556 975 473 
Q 1284 391 1588 391 
Q 1994 391 2212 530 
Q 2431 669 2431 922 
Q 2431 1156 2273 1281 
Q 2116 1406 1581 1522 
L 1381 1569 
Q 847 1681 609 1914 
Q 372 2147 372 2553 
Q 372 3047 722 3315 
Q 1072 3584 1716 3584 
Q 2034 3584 2315 3537 
Q 2597 3491 2834 3397 
z
" transform="scale(0.015625)"/>
      </defs>
      <use xlink:href="#DejaVuSans-5a"/>
      <use xlink:href="#DejaVuSans-65" x="68.505859"/>
      <use xlink:href="#DejaVuSans-69" x="130.029297"/>
      <use xlink:href="#DejaVuSans-74" x="157.8125"/>
      <use xlink:href="#DejaVuSans-20" x="197.021484"/>
      <use xlink:href="#DejaVuSans-2f" x="228.808594"/>
      <use xlink:href="#DejaVuSans-73" x="262.5"/>
     </g>
    </g>
   </g>
   <g id="matplotlib.axis_2">
    <g id="ytick_1">
     <g id="line2d_8">
      <defs>
       <path id="m5c5fafeae1" d="M 0 0 
L -6 0 
" style="stroke: #262626; stroke-width: 1.25"/>
      </defs>
      <g>
       <use xlink:href="#m5c5fafeae1" x="71.3925" y="250.282531" style="fill: #262626; stroke: #262626; stroke-width: 1.25"/>
      </g>
     </g>
     <g id="text_9">
      <!-- 16 -->
      <g style="fill: #262626" transform="translate(40.89625 256.551241) scale(0.165 -0.165)">
       <use xlink:href="#DejaVuSans-31"/>
       <use xlink:href="#DejaVuSans-36" x="63.623047"/>
      </g>
     </g>
    </g>
    <g id="ytick_2">
     <g id="line2d_9">
      <g>
       <use xlink:href="#m5c5fafeae1" x="71.3925" y="189.856503" style="fill: #262626; stroke: #262626; stroke-width: 1.25"/>
      </g>
     </g>
     <g id="text_10">
      <!-- 18 -->
      <g style="fill: #262626" transform="translate(40.89625 196.125214) scale(0.165 -0.165)">
       <use xlink:href="#DejaVuSans-31"/>
       <use xlink:href="#DejaVuSans-38" x="63.623047"/>
      </g>
     </g>
    </g>
    <g id="ytick_3">
     <g id="line2d_10">
      <g>
       <use xlink:href="#m5c5fafeae1" x="71.3925" y="129.430476" style="fill: #262626; stroke: #262626; stroke-width: 1.25"/>
      </g>
     </g>
     <g id="text_11">
      <!-- 20 -->
      <g style="fill: #262626" transform="translate(40.89625 135.699187) scale(0.165 -0.165)">
       <use xlink:href="#DejaVuSans-32"/>
       <use xlink:href="#DejaVuSans-30" x="63.623047"/>
      </g>
     </g>
    </g>
    <g id="ytick_4">
     <g id="line2d_11">
      <g>
       <use xlink:href="#m5c5fafeae1" x="71.3925" y="69.004449" style="fill: #262626; stroke: #262626; stroke-width: 1.25"/>
      </g>
     </g>
     <g id="text_12">
      <!-- 22 -->
      <g style="fill: #262626" transform="translate(40.89625 75.27316) scale(0.165 -0.165)">
       <use xlink:href="#DejaVuSans-32"/>
       <use xlink:href="#DejaVuSans-32" x="63.623047"/>
      </g>
     </g>
    </g>
    <g id="text_13">
     <!-- Temperatur /°C -->
     <g style="fill: #262626" transform="translate(33.152813 217.566562) rotate(-90) scale(0.18 -0.18)">
      <defs>
       <path id="DejaVuSans-54" d="M -19 4666 
L 3928 4666 
L 3928 4134 
L 2272 4134 
L 2272 0 
L 1638 0 
L 1638 4134 
L -19 4134 
L -19 4666 
z
" transform="scale(0.015625)"/>
       <path id="DejaVuSans-6d" d="M 3328 2828 
Q 3544 3216 3844 3400 
Q 4144 3584 4550 3584 
Q 5097 3584 5394 3201 
Q 5691 2819 5691 2113 
L 5691 0 
L 5113 0 
L 5113 2094 
Q 5113 2597 4934 2840 
Q 4756 3084 4391 3084 
Q 3944 3084 3684 2787 
Q 3425 2491 3425 1978 
L 3425 0 
L 2847 0 
L 2847 2094 
Q 2847 2600 2669 2842 
Q 2491 3084 2119 3084 
Q 1678 3084 1418 2786 
Q 1159 2488 1159 1978 
L 1159 0 
L 581 0 
L 581 3500 
L 1159 3500 
L 1159 2956 
Q 1356 3278 1631 3431 
Q 1906 3584 2284 3584 
Q 2666 3584 2933 3390 
Q 3200 3197 3328 2828 
z
" transform="scale(0.015625)"/>
       <path id="DejaVuSans-70" d="M 1159 525 
L 1159 -1331 
L 581 -1331 
L 581 3500 
L 1159 3500 
L 1159 2969 
Q 1341 3281 1617 3432 
Q 1894 3584 2278 3584 
Q 2916 3584 3314 3078 
Q 3713 2572 3713 1747 
Q 3713 922 3314 415 
Q 2916 -91 2278 -91 
Q 1894 -91 1617 61 
Q 1341 213 1159 525 
z
M 3116 1747 
Q 3116 2381 2855 2742 
Q 2594 3103 2138 3103 
Q 1681 3103 1420 2742 
Q 1159 2381 1159 1747 
Q 1159 1113 1420 752 
Q 1681 391 2138 391 
Q 2594 391 2855 752 
Q 3116 1113 3116 1747 
z
" transform="scale(0.015625)"/>
       <path id="DejaVuSans-72" d="M 2631 2963 
Q 2534 3019 2420 3045 
Q 2306 3072 2169 3072 
Q 1681 3072 1420 2755 
Q 1159 2438 1159 1844 
L 1159 0 
L 581 0 
L 581 3500 
L 1159 3500 
L 1159 2956 
Q 1341 3275 1631 3429 
Q 1922 3584 2338 3584 
Q 2397 3584 2469 3576 
Q 2541 3569 2628 3553 
L 2631 2963 
z
" transform="scale(0.015625)"/>
       <path id="DejaVuSans-61" d="M 2194 1759 
Q 1497 1759 1228 1600 
Q 959 1441 959 1056 
Q 959 750 1161 570 
Q 1363 391 1709 391 
Q 2188 391 2477 730 
Q 2766 1069 2766 1631 
L 2766 1759 
L 2194 1759 
z
M 3341 1997 
L 3341 0 
L 2766 0 
L 2766 531 
Q 2569 213 2275 61 
Q 1981 -91 1556 -91 
Q 1019 -91 701 211 
Q 384 513 384 1019 
Q 384 1609 779 1909 
Q 1175 2209 1959 2209 
L 2766 2209 
L 2766 2266 
Q 2766 2663 2505 2880 
Q 2244 3097 1772 3097 
Q 1472 3097 1187 3025 
Q 903 2953 641 2809 
L 641 3341 
Q 956 3463 1253 3523 
Q 1550 3584 1831 3584 
Q 2591 3584 2966 3190 
Q 3341 2797 3341 1997 
z
" transform="scale(0.015625)"/>
       <path id="DejaVuSans-75" d="M 544 1381 
L 544 3500 
L 1119 3500 
L 1119 1403 
Q 1119 906 1312 657 
Q 1506 409 1894 409 
Q 2359 409 2629 706 
Q 2900 1003 2900 1516 
L 2900 3500 
L 3475 3500 
L 3475 0 
L 2900 0 
L 2900 538 
Q 2691 219 2414 64 
Q 2138 -91 1772 -91 
Q 1169 -91 856 284 
Q 544 659 544 1381 
z
M 1991 3584 
L 1991 3584 
z
" transform="scale(0.015625)"/>
       <path id="DejaVuSans-b0" d="M 1600 4347 
Q 1350 4347 1178 4173 
Q 1006 4000 1006 3750 
Q 1006 3503 1178 3333 
Q 1350 3163 1600 3163 
Q 1850 3163 2022 3333 
Q 2194 3503 2194 3750 
Q 2194 3997 2020 4172 
Q 1847 4347 1600 4347 
z
M 1600 4750 
Q 1800 4750 1984 4673 
Q 2169 4597 2303 4453 
Q 2447 4313 2519 4134 
Q 2591 3956 2591 3750 
Q 2591 3338 2302 3052 
Q 2013 2766 1594 2766 
Q 1172 2766 890 3047 
Q 609 3328 609 3750 
Q 609 4169 896 4459 
Q 1184 4750 1600 4750 
z
" transform="scale(0.015625)"/>
       <path id="DejaVuSans-43" d="M 4122 4306 
L 4122 3641 
Q 3803 3938 3442 4084 
Q 3081 4231 2675 4231 
Q 1875 4231 1450 3742 
Q 1025 3253 1025 2328 
Q 1025 1406 1450 917 
Q 1875 428 2675 428 
Q 3081 428 3442 575 
Q 3803 722 4122 1019 
L 4122 359 
Q 3791 134 3420 21 
Q 3050 -91 2638 -91 
Q 1578 -91 968 557 
Q 359 1206 359 2328 
Q 359 3453 968 4101 
Q 1578 4750 2638 4750 
Q 3056 4750 3426 4639 
Q 3797 4528 4122 4306 
z
" transform="scale(0.015625)"/>
      </defs>
      <use xlink:href="#DejaVuSans-54"/>
      <use xlink:href="#DejaVuSans-65" x="44.083984"/>
      <use xlink:href="#DejaVuSans-6d" x="105.607422"/>
      <use xlink:href="#DejaVuSans-70" x="203.019531"/>
      <use xlink:href="#DejaVuSans-65" x="266.496094"/>
      <use xlink:href="#DejaVuSans-72" x="328.019531"/>
      <use xlink:href="#DejaVuSans-61" x="369.132812"/>
      <use xlink:href="#DejaVuSans-74" x="430.412109"/>
      <use xlink:href="#DejaVuSans-75" x="469.621094"/>
      <use xlink:href="#DejaVuSans-72" x="533"/>
      <use xlink:href="#DejaVuSans-20" x="574.113281"/>
      <use xlink:href="#DejaVuSans-2f" x="605.900391"/>
      <use xlink:href="#DejaVuSans-b0" x="639.591797"/>
      <use xlink:href="#DejaVuSans-43" x="689.591797"/>
     </g>
    </g>
   </g>
   <g id="PathCollection_1">
    <defs>
     <path id="m6282f7a644" d="M 0 3 
C 0.795609 3 1.55874 2.683901 2.12132 2.12132 
C 2.683901 1.55874 3 0.795609 3 0 
C 3 -0.795609 2.683901 -1.55874 2.12132 -2.12132 
C 1.55874 -2.683901 0.795609 -3 0 -3 
C -0.795609 -3 -1.55874 -2.683901 -2.12132 -2.12132 
C -2.683901 -1.55874 -3 -0.795609 -3 0 
C -3 0.795609 -2.683901 1.55874 -2.12132 2.12132 
C -1.55874 2.683901 -0.795609 3 0 3 
z
" style="stroke: #4c72b0"/>
    </defs>
    <g clip-path="url(#p8e329f3941)">
     <use xlink:href="#m6282f7a644" x="88.209205" y="267.201818" style="fill: #4c72b0; stroke: #4c72b0"/>
     <use xlink:href="#m6282f7a644" x="90.878523" y="267.201818" style="fill: #4c72b0; stroke: #4c72b0"/>
     <use xlink:href="#m6282f7a644" x="93.547841" y="267.201818" style="fill: #4c72b0; stroke: #4c72b0"/>
     <use xlink:href="#m6282f7a644" x="96.217159" y="267.201818" style="fill: #4c72b0; stroke: #4c72b0"/>
     <use xlink:href="#m6282f7a644" x="98.886477" y="267.201818" style="fill: #4c72b0; stroke: #4c72b0"/>
     <use xlink:href="#m6282f7a644" x="101.555795" y="267.201818" style="fill: #4c72b0; stroke: #4c72b0"/>
     <use xlink:href="#m6282f7a644" x="104.225114" y="267.201818" style="fill: #4c72b0; stroke: #4c72b0"/>
     <use xlink:href="#m6282f7a644" x="106.894432" y="267.201818" style="fill: #4c72b0; stroke: #4c72b0"/>
     <use xlink:href="#m6282f7a644" x="109.56375" y="265.389037" style="fill: #4c72b0; stroke: #4c72b0"/>
     <use xlink:href="#m6282f7a644" x="112.233068" y="265.389037" style="fill: #4c72b0; stroke: #4c72b0"/>
     <use xlink:href="#m6282f7a644" x="114.902386" y="265.389037" style="fill: #4c72b0; stroke: #4c72b0"/>
     <use xlink:href="#m6282f7a644" x="117.571705" y="265.389037" style="fill: #4c72b0; stroke: #4c72b0"/>
     <use xlink:href="#m6282f7a644" x="120.241023" y="265.389037" style="fill: #4c72b0; stroke: #4c72b0"/>
     <use xlink:href="#m6282f7a644" x="122.910341" y="265.389037" style="fill: #4c72b0; stroke: #4c72b0"/>
     <use xlink:href="#m6282f7a644" x="125.579659" y="265.389037" style="fill: #4c72b0; stroke: #4c72b0"/>
     <use xlink:href="#m6282f7a644" x="128.248977" y="265.389037" style="fill: #4c72b0; stroke: #4c72b0"/>
     <use xlink:href="#m6282f7a644" x="130.918295" y="267.201818" style="fill: #4c72b0; stroke: #4c72b0"/>
     <use xlink:href="#m6282f7a644" x="133.587614" y="267.201818" style="fill: #4c72b0; stroke: #4c72b0"/>
     <use xlink:href="#m6282f7a644" x="136.256932" y="267.201818" style="fill: #4c72b0; stroke: #4c72b0"/>
     <use xlink:href="#m6282f7a644" x="138.92625" y="267.201818" style="fill: #4c72b0; stroke: #4c72b0"/>
     <use xlink:href="#m6282f7a644" x="141.595568" y="267.201818" style="fill: #4c72b0; stroke: #4c72b0"/>
     <use xlink:href="#m6282f7a644" x="144.264886" y="267.201818" style="fill: #4c72b0; stroke: #4c72b0"/>
     <use xlink:href="#m6282f7a644" x="146.934205" y="265.389037" style="fill: #4c72b0; stroke: #4c72b0"/>
     <use xlink:href="#m6282f7a644" x="149.603523" y="265.389037" style="fill: #4c72b0; stroke: #4c72b0"/>
     <use xlink:href="#m6282f7a644" x="152.272841" y="265.389037" style="fill: #4c72b0; stroke: #4c72b0"/>
     <use xlink:href="#m6282f7a644" x="154.942159" y="265.389037" style="fill: #4c72b0; stroke: #4c72b0"/>
     <use xlink:href="#m6282f7a644" x="157.611477" y="263.576257" style="fill: #4c72b0; stroke: #4c72b0"/>
     <use xlink:href="#m6282f7a644" x="160.280795" y="263.576257" style="fill: #4c72b0; stroke: #4c72b0"/>
     <use xlink:href="#m6282f7a644" x="162.950114" y="263.576257" style="fill: #4c72b0; stroke: #4c72b0"/>
     <use xlink:href="#m6282f7a644" x="165.619432" y="263.576257" style="fill: #4c72b0; stroke: #4c72b0"/>
     <use xlink:href="#m6282f7a644" x="168.28875" y="263.576257" style="fill: #4c72b0; stroke: #4c72b0"/>
     <use xlink:href="#m6282f7a644" x="170.958068" y="263.576257" style="fill: #4c72b0; stroke: #4c72b0"/>
     <use xlink:href="#m6282f7a644" x="173.627386" y="263.576257" style="fill: #4c72b0; stroke: #4c72b0"/>
     <use xlink:href="#m6282f7a644" x="176.296705" y="263.576257" style="fill: #4c72b0; stroke: #4c72b0"/>
     <use xlink:href="#m6282f7a644" x="178.966023" y="263.576257" style="fill: #4c72b0; stroke: #4c72b0"/>
     <use xlink:href="#m6282f7a644" x="181.635341" y="263.576257" style="fill: #4c72b0; stroke: #4c72b0"/>
     <use xlink:href="#m6282f7a644" x="184.304659" y="263.576257" style="fill: #4c72b0; stroke: #4c72b0"/>
     <use xlink:href="#m6282f7a644" x="186.973977" y="263.576257" style="fill: #4c72b0; stroke: #4c72b0"/>
     <use xlink:href="#m6282f7a644" x="189.643295" y="263.576257" style="fill: #4c72b0; stroke: #4c72b0"/>
     <use xlink:href="#m6282f7a644" x="192.312614" y="265.389037" style="fill: #4c72b0; stroke: #4c72b0"/>
     <use xlink:href="#m6282f7a644" x="194.981932" y="265.389037" style="fill: #4c72b0; stroke: #4c72b0"/>
     <use xlink:href="#m6282f7a644" x="197.65125" y="265.389037" style="fill: #4c72b0; stroke: #4c72b0"/>
     <use xlink:href="#m6282f7a644" x="200.320568" y="265.389037" style="fill: #4c72b0; stroke: #4c72b0"/>
     <use xlink:href="#m6282f7a644" x="202.989886" y="265.389037" style="fill: #4c72b0; stroke: #4c72b0"/>
     <use xlink:href="#m6282f7a644" x="205.659205" y="265.389037" style="fill: #4c72b0; stroke: #4c72b0"/>
     <use xlink:href="#m6282f7a644" x="208.328523" y="263.576257" style="fill: #4c72b0; stroke: #4c72b0"/>
     <use xlink:href="#m6282f7a644" x="210.997841" y="263.576257" style="fill: #4c72b0; stroke: #4c72b0"/>
     <use xlink:href="#m6282f7a644" x="213.667159" y="263.576257" style="fill: #4c72b0; stroke: #4c72b0"/>
     <use xlink:href="#m6282f7a644" x="216.336477" y="263.576257" style="fill: #4c72b0; stroke: #4c72b0"/>
     <use xlink:href="#m6282f7a644" x="219.005795" y="263.576257" style="fill: #4c72b0; stroke: #4c72b0"/>
     <use xlink:href="#m6282f7a644" x="221.675114" y="263.576257" style="fill: #4c72b0; stroke: #4c72b0"/>
     <use xlink:href="#m6282f7a644" x="224.344432" y="263.576257" style="fill: #4c72b0; stroke: #4c72b0"/>
     <use xlink:href="#m6282f7a644" x="227.01375" y="263.576257" style="fill: #4c72b0; stroke: #4c72b0"/>
     <use xlink:href="#m6282f7a644" x="229.683068" y="261.763476" style="fill: #4c72b0; stroke: #4c72b0"/>
     <use xlink:href="#m6282f7a644" x="232.352386" y="261.763476" style="fill: #4c72b0; stroke: #4c72b0"/>
     <use xlink:href="#m6282f7a644" x="235.021705" y="263.576257" style="fill: #4c72b0; stroke: #4c72b0"/>
     <use xlink:href="#m6282f7a644" x="237.691023" y="261.763476" style="fill: #4c72b0; stroke: #4c72b0"/>
     <use xlink:href="#m6282f7a644" x="240.360341" y="261.763476" style="fill: #4c72b0; stroke: #4c72b0"/>
     <use xlink:href="#m6282f7a644" x="243.029659" y="261.763476" style="fill: #4c72b0; stroke: #4c72b0"/>
     <use xlink:href="#m6282f7a644" x="245.698977" y="261.763476" style="fill: #4c72b0; stroke: #4c72b0"/>
     <use xlink:href="#m6282f7a644" x="248.368295" y="261.763476" style="fill: #4c72b0; stroke: #4c72b0"/>
     <use xlink:href="#m6282f7a644" x="251.037614" y="261.763476" style="fill: #4c72b0; stroke: #4c72b0"/>
     <use xlink:href="#m6282f7a644" x="253.706932" y="261.763476" style="fill: #4c72b0; stroke: #4c72b0"/>
     <use xlink:href="#m6282f7a644" x="256.37625" y="259.648565" style="fill: #4c72b0; stroke: #4c72b0"/>
     <use xlink:href="#m6282f7a644" x="259.045568" y="259.648565" style="fill: #4c72b0; stroke: #4c72b0"/>
     <use xlink:href="#m6282f7a644" x="261.714886" y="259.648565" style="fill: #4c72b0; stroke: #4c72b0"/>
     <use xlink:href="#m6282f7a644" x="264.384205" y="259.648565" style="fill: #4c72b0; stroke: #4c72b0"/>
     <use xlink:href="#m6282f7a644" x="267.053523" y="259.648565" style="fill: #4c72b0; stroke: #4c72b0"/>
     <use xlink:href="#m6282f7a644" x="269.722841" y="259.648565" style="fill: #4c72b0; stroke: #4c72b0"/>
     <use xlink:href="#m6282f7a644" x="272.392159" y="259.648565" style="fill: #4c72b0; stroke: #4c72b0"/>
     <use xlink:href="#m6282f7a644" x="275.061477" y="261.763476" style="fill: #4c72b0; stroke: #4c72b0"/>
     <use xlink:href="#m6282f7a644" x="277.730795" y="261.763476" style="fill: #4c72b0; stroke: #4c72b0"/>
     <use xlink:href="#m6282f7a644" x="280.400114" y="263.576257" style="fill: #4c72b0; stroke: #4c72b0"/>
     <use xlink:href="#m6282f7a644" x="283.069432" y="263.576257" style="fill: #4c72b0; stroke: #4c72b0"/>
     <use xlink:href="#m6282f7a644" x="285.73875" y="265.389037" style="fill: #4c72b0; stroke: #4c72b0"/>
     <use xlink:href="#m6282f7a644" x="288.408068" y="265.389037" style="fill: #4c72b0; stroke: #4c72b0"/>
     <use xlink:href="#m6282f7a644" x="291.077386" y="265.389037" style="fill: #4c72b0; stroke: #4c72b0"/>
     <use xlink:href="#m6282f7a644" x="293.746705" y="265.389037" style="fill: #4c72b0; stroke: #4c72b0"/>
     <use xlink:href="#m6282f7a644" x="296.416023" y="267.201818" style="fill: #4c72b0; stroke: #4c72b0"/>
     <use xlink:href="#m6282f7a644" x="299.085341" y="265.389037" style="fill: #4c72b0; stroke: #4c72b0"/>
     <use xlink:href="#m6282f7a644" x="301.754659" y="265.389037" style="fill: #4c72b0; stroke: #4c72b0"/>
     <use xlink:href="#m6282f7a644" x="304.423977" y="265.389037" style="fill: #4c72b0; stroke: #4c72b0"/>
     <use xlink:href="#m6282f7a644" x="307.093295" y="265.389037" style="fill: #4c72b0; stroke: #4c72b0"/>
     <use xlink:href="#m6282f7a644" x="309.762614" y="265.389037" style="fill: #4c72b0; stroke: #4c72b0"/>
     <use xlink:href="#m6282f7a644" x="312.431932" y="265.389037" style="fill: #4c72b0; stroke: #4c72b0"/>
     <use xlink:href="#m6282f7a644" x="315.10125" y="265.389037" style="fill: #4c72b0; stroke: #4c72b0"/>
     <use xlink:href="#m6282f7a644" x="317.770568" y="265.389037" style="fill: #4c72b0; stroke: #4c72b0"/>
     <use xlink:href="#m6282f7a644" x="320.439886" y="265.389037" style="fill: #4c72b0; stroke: #4c72b0"/>
     <use xlink:href="#m6282f7a644" x="323.109205" y="265.389037" style="fill: #4c72b0; stroke: #4c72b0"/>
     <use xlink:href="#m6282f7a644" x="325.778523" y="265.389037" style="fill: #4c72b0; stroke: #4c72b0"/>
     <use xlink:href="#m6282f7a644" x="328.447841" y="265.389037" style="fill: #4c72b0; stroke: #4c72b0"/>
     <use xlink:href="#m6282f7a644" x="331.117159" y="265.389037" style="fill: #4c72b0; stroke: #4c72b0"/>
     <use xlink:href="#m6282f7a644" x="333.786477" y="265.389037" style="fill: #4c72b0; stroke: #4c72b0"/>
     <use xlink:href="#m6282f7a644" x="336.455795" y="265.389037" style="fill: #4c72b0; stroke: #4c72b0"/>
     <use xlink:href="#m6282f7a644" x="339.125114" y="265.389037" style="fill: #4c72b0; stroke: #4c72b0"/>
     <use xlink:href="#m6282f7a644" x="341.794432" y="265.389037" style="fill: #4c72b0; stroke: #4c72b0"/>
     <use xlink:href="#m6282f7a644" x="344.46375" y="257.835784" style="fill: #4c72b0; stroke: #4c72b0"/>
     <use xlink:href="#m6282f7a644" x="347.133068" y="174.749997" style="fill: #4c72b0; stroke: #4c72b0"/>
     <use xlink:href="#m6282f7a644" x="349.802386" y="99.217462" style="fill: #4c72b0; stroke: #4c72b0"/>
     <use xlink:href="#m6282f7a644" x="352.471705" y="72.63001" style="fill: #4c72b0; stroke: #4c72b0"/>
     <use xlink:href="#m6282f7a644" x="355.141023" y="55.710723" style="fill: #4c72b0; stroke: #4c72b0"/>
     <use xlink:href="#m6282f7a644" x="357.810341" y="40.604216" style="fill: #4c72b0; stroke: #4c72b0"/>
     <use xlink:href="#m6282f7a644" x="360.479659" y="31.238182" style="fill: #4c72b0; stroke: #4c72b0"/>
     <use xlink:href="#m6282f7a644" x="363.148977" y="44.531908" style="fill: #4c72b0; stroke: #4c72b0"/>
     <use xlink:href="#m6282f7a644" x="365.818295" y="65.378887" style="fill: #4c72b0; stroke: #4c72b0"/>
     <use xlink:href="#m6282f7a644" x="368.487614" y="82.298175" style="fill: #4c72b0; stroke: #4c72b0"/>
     <use xlink:href="#m6282f7a644" x="371.156932" y="97.404682" style="fill: #4c72b0; stroke: #4c72b0"/>
     <use xlink:href="#m6282f7a644" x="373.82625" y="112.511188" style="fill: #4c72b0; stroke: #4c72b0"/>
     <use xlink:href="#m6282f7a644" x="376.495568" y="123.690003" style="fill: #4c72b0; stroke: #4c72b0"/>
     <use xlink:href="#m6282f7a644" x="379.164886" y="135.170949" style="fill: #4c72b0; stroke: #4c72b0"/>
     <use xlink:href="#m6282f7a644" x="381.834205" y="144.536983" style="fill: #4c72b0; stroke: #4c72b0"/>
     <use xlink:href="#m6282f7a644" x="384.503523" y="153.903017" style="fill: #4c72b0; stroke: #4c72b0"/>
     <use xlink:href="#m6282f7a644" x="387.172841" y="161.456271" style="fill: #4c72b0; stroke: #4c72b0"/>
     <use xlink:href="#m6282f7a644" x="389.842159" y="169.009524" style="fill: #4c72b0; stroke: #4c72b0"/>
     <use xlink:href="#m6282f7a644" x="392.511477" y="169.009524" style="fill: #4c72b0; stroke: #4c72b0"/>
     <use xlink:href="#m6282f7a644" x="395.180795" y="176.562777" style="fill: #4c72b0; stroke: #4c72b0"/>
     <use xlink:href="#m6282f7a644" x="397.850114" y="182.30325" style="fill: #4c72b0; stroke: #4c72b0"/>
     <use xlink:href="#m6282f7a644" x="400.519432" y="186.230942" style="fill: #4c72b0; stroke: #4c72b0"/>
     <use xlink:href="#m6282f7a644" x="403.18875" y="191.669284" style="fill: #4c72b0; stroke: #4c72b0"/>
     <use xlink:href="#m6282f7a644" x="405.858068" y="195.596976" style="fill: #4c72b0; stroke: #4c72b0"/>
     <use xlink:href="#m6282f7a644" x="408.527386" y="199.222538" style="fill: #4c72b0; stroke: #4c72b0"/>
     <use xlink:href="#m6282f7a644" x="411.196705" y="201.337448" style="fill: #4c72b0; stroke: #4c72b0"/>
     <use xlink:href="#m6282f7a644" x="413.866023" y="204.96301" style="fill: #4c72b0; stroke: #4c72b0"/>
     <use xlink:href="#m6282f7a644" x="416.535341" y="208.588572" style="fill: #4c72b0; stroke: #4c72b0"/>
     <use xlink:href="#m6282f7a644" x="419.204659" y="210.703483" style="fill: #4c72b0; stroke: #4c72b0"/>
     <use xlink:href="#m6282f7a644" x="421.873977" y="214.329044" style="fill: #4c72b0; stroke: #4c72b0"/>
     <use xlink:href="#m6282f7a644" x="424.543295" y="216.443955" style="fill: #4c72b0; stroke: #4c72b0"/>
    </g>
   </g>
   <g id="line2d_12">
    <path d="M 88.209205 267.201818 
L 90.878523 267.201818 
L 93.547841 267.201818 
L 96.217159 267.201818 
L 98.886477 267.201818 
L 101.555795 267.201818 
L 104.225114 267.201818 
L 106.894432 267.201818 
L 109.56375 265.389037 
L 112.233068 265.389037 
L 114.902386 265.389037 
L 117.571705 265.389037 
L 120.241023 265.389037 
L 122.910341 265.389037 
L 125.579659 265.389037 
L 128.248977 265.389037 
L 130.918295 267.201818 
L 133.587614 267.201818 
L 136.256932 267.201818 
L 138.92625 267.201818 
L 141.595568 267.201818 
L 144.264886 267.201818 
L 146.934205 265.389037 
L 149.603523 265.389037 
L 152.272841 265.389037 
L 154.942159 265.389037 
L 157.611477 263.576257 
L 160.280795 263.576257 
L 162.950114 263.576257 
L 165.619432 263.576257 
L 168.28875 263.576257 
L 170.958068 263.576257 
L 173.627386 263.576257 
L 176.296705 263.576257 
L 178.966023 263.576257 
L 181.635341 263.576257 
L 184.304659 263.576257 
L 186.973977 263.576257 
L 189.643295 263.576257 
L 192.312614 265.389037 
L 194.981932 265.389037 
L 197.65125 265.389037 
L 200.320568 265.389037 
L 202.989886 265.389037 
L 205.659205 265.389037 
L 208.328523 263.576257 
L 210.997841 263.576257 
L 213.667159 263.576257 
L 216.336477 263.576257 
L 219.005795 263.576257 
L 221.675114 263.576257 
L 224.344432 263.576257 
L 227.01375 263.576257 
L 229.683068 261.763476 
L 232.352386 261.763476 
L 235.021705 263.576257 
L 237.691023 261.763476 
L 240.360341 261.763476 
L 243.029659 261.763476 
L 245.698977 261.763476 
L 248.368295 261.763476 
L 251.037614 261.763476 
L 253.706932 261.763476 
L 256.37625 259.648565 
L 259.045568 259.648565 
L 261.714886 259.648565 
L 264.384205 259.648565 
L 267.053523 259.648565 
L 269.722841 259.648565 
L 272.392159 259.648565 
L 275.061477 261.763476 
L 277.730795 261.763476 
L 280.400114 263.576257 
L 283.069432 263.576257 
L 285.73875 265.389037 
L 288.408068 265.389037 
L 291.077386 265.389037 
L 293.746705 265.389037 
L 296.416023 267.201818 
L 299.085341 265.389037 
L 301.754659 265.389037 
L 304.423977 265.389037 
L 307.093295 265.389037 
L 309.762614 265.389037 
L 312.431932 265.389037 
L 315.10125 265.389037 
L 317.770568 265.389037 
L 320.439886 265.389037 
L 323.109205 265.389037 
L 325.778523 265.389037 
L 328.447841 265.389037 
L 331.117159 265.389037 
L 333.786477 265.389037 
L 336.455795 265.389037 
L 339.125114 265.389037 
L 341.794432 265.389037 
L 344.46375 257.835784 
L 347.133068 174.749997 
L 349.802386 99.217462 
L 352.471705 72.63001 
L 355.141023 55.710723 
L 357.810341 40.604216 
L 360.479659 31.238182 
L 363.148977 44.531908 
L 365.818295 65.378887 
L 368.487614 82.298175 
L 371.156932 97.404682 
L 373.82625 112.511188 
L 376.495568 123.690003 
L 379.164886 135.170949 
L 381.834205 144.536983 
L 384.503523 153.903017 
L 387.172841 161.456271 
L 389.842159 169.009524 
L 392.511477 169.009524 
L 395.180795 176.562777 
L 397.850114 182.30325 
L 400.519432 186.230942 
L 403.18875 191.669284 
L 405.858068 195.596976 
L 408.527386 199.222538 
L 411.196705 201.337448 
L 413.866023 204.96301 
L 416.535341 208.588572 
L 419.204659 210.703483 
L 421.873977 214.329044 
L 424.543295 216.443955 
" clip-path="url(#p8e329f3941)" style="fill: none; stroke: #4c72b0; stroke-width: 2.5; stroke-linecap: round"/>
   </g>
   <g id="patch_3">
    <path d="M 71.3925 279 
L 71.3925 19.44 
" style="fill: none; stroke: #262626; stroke-width: 1.25; stroke-linejoin: miter; stroke-linecap: square"/>
   </g>
   <g id="patch_4">
    <path d="M 71.3925 279 
L 441.36 279 
" style="fill: none; stroke: #262626; stroke-width: 1.25; stroke-linejoin: miter; stroke-linecap: square"/>
   </g>
  </g>
 </g>
 <defs>
  <clipPath id="p8e329f3941">
   <rect x="71.3925" y="19.44" width="369.9675" height="259.56"/>
  </clipPath>
 </defs>
</svg>
